<?xml version="1.0" encoding="UTF-8" standalone="no"?>
<!DOCTYPE svg PUBLIC "-//W3C//DTD SVG 1.1//EN"
 "http://www.w3.org/Graphics/SVG/1.1/DTD/svg11.dtd">
<!-- Generated by graphviz version 2.26.3 (20100126.1600)
 -->
<!-- Title: condition.processFlow Pages: 1 -->
<svg width="786pt" height="152pt"
 viewBox="0.00 0.00 786.00 152.00" xmlns="http://www.w3.org/2000/svg" xmlns:xlink="http://www.w3.org/1999/xlink">
<g id="graph1" class="graph" transform="scale(1 1) rotate(0) translate(4 148)">
<title>condition.processFlow</title>
<polygon fill="white" stroke="white" points="-4,5 -4,-148 783,-148 783,5 -4,5"/>
<!-- start -->
<g id="node1" class="node"><title>start</title>
<ellipse fill="none" stroke="black" cx="18" cy="-72" rx="18" ry="18"/>
</g>
<!-- condition.gateway -->
<g id="node4" class="node"><title>condition.gateway</title>
<polyline fill="none" stroke="black" points="204,-90 84,-90 "/>
<path fill="none" stroke="black" d="M84,-90C78,-90 72,-84 72,-78"/>
<polyline fill="none" stroke="black" points="72,-78 72,-66 "/>
<path fill="none" stroke="black" d="M72,-66C72,-60 78,-54 84,-54"/>
<polyline fill="none" stroke="black" points="84,-54 204,-54 "/>
<path fill="none" stroke="black" d="M204,-54C210,-54 216,-60 216,-66"/>
<polyline fill="none" stroke="black" points="216,-66 216,-78 "/>
<path fill="none" stroke="black" d="M216,-78C216,-84 210,-90 204,-90"/>
<text text-anchor="middle" x="144" y="-68.4" font-family="Times Roman,serif" font-size="14.00">condition.gateway</text>
</g>
<!-- start&#45;&gt;condition.gateway -->
<g id="edge2" class="edge"><title>start&#45;&gt;condition.gateway</title>
<path fill="none" stroke="black" d="M36.0527,-72C43.2748,-72 52.1411,-72 61.6597,-72"/>
<polygon fill="black" stroke="black" points="61.7737,-75.5001 71.7737,-72 61.7737,-68.5001 61.7737,-75.5001"/>
</g>
<!-- end -->
<g id="node2" class="node"><title>end</title>
<ellipse fill="none" stroke="black" cx="756" cy="-72" rx="18" ry="18"/>
<ellipse fill="none" stroke="black" cx="756" cy="-72" rx="22" ry="22"/>
</g>
<!-- condition.log1g -->
<g id="node6" class="node"><title>condition.log1g</title>
<polyline fill="none" stroke="black" points="535,-144 437,-144 "/>
<path fill="none" stroke="black" d="M437,-144C431,-144 425,-138 425,-132"/>
<polyline fill="none" stroke="black" points="425,-132 425,-120 "/>
<path fill="none" stroke="black" d="M425,-120C425,-114 431,-108 437,-108"/>
<polyline fill="none" stroke="black" points="437,-108 535,-108 "/>
<path fill="none" stroke="black" d="M535,-108C541,-108 547,-114 547,-120"/>
<polyline fill="none" stroke="black" points="547,-120 547,-132 "/>
<path fill="none" stroke="black" d="M547,-132C547,-138 541,-144 535,-144"/>
<text text-anchor="middle" x="486" y="-122.4" font-family="Times Roman,serif" font-size="14.00">condition.log1g</text>
</g>
<!-- condition.gateway&#45;&gt;condition.log1g -->
<g id="edge4" class="edge"><title>condition.gateway&#45;&gt;condition.log1g</title>
<path fill="none" stroke="black" d="M216.038,-90.0094C235.848,-94.9621 252,-99 252,-99 252,-99 346.018,-109.848 414.864,-117.792"/>
<polygon fill="black" stroke="black" points="414.49,-121.272 424.825,-118.941 415.292,-114.318 414.49,-121.272"/>
</g>
<!-- condition.log2g1 -->
<g id="node8" class="node"><title>condition.log2g1</title>
<polyline fill="none" stroke="black" points="371,-90 265,-90 "/>
<path fill="none" stroke="black" d="M265,-90C259,-90 253,-84 253,-78"/>
<polyline fill="none" stroke="black" points="253,-78 253,-66 "/>
<path fill="none" stroke="black" d="M253,-66C253,-60 259,-54 265,-54"/>
<polyline fill="none" stroke="black" points="265,-54 371,-54 "/>
<path fill="none" stroke="black" d="M371,-54C377,-54 383,-60 383,-66"/>
<polyline fill="none" stroke="black" points="383,-66 383,-78 "/>
<path fill="none" stroke="black" d="M383,-78C383,-84 377,-90 371,-90"/>
<text text-anchor="middle" x="318" y="-68.4" font-family="Times Roman,serif" font-size="14.00">condition.log2g1</text>
</g>
<!-- condition.gateway&#45;&gt;condition.log2g1 -->
<g id="edge6" class="edge"><title>condition.gateway&#45;&gt;condition.log2g1</title>
<path fill="none" stroke="black" d="M216.028,-72C224.697,-72 233.57,-72 242.289,-72"/>
<polygon fill="black" stroke="black" points="242.433,-75.5001 252.433,-72 242.433,-68.5001 242.433,-75.5001"/>
</g>
<!-- condition.log3g1 -->
<g id="node12" class="node"><title>condition.log3g1</title>
<polyline fill="none" stroke="black" points="371,-36 265,-36 "/>
<path fill="none" stroke="black" d="M265,-36C259,-36 253,-30 253,-24"/>
<polyline fill="none" stroke="black" points="253,-24 253,-12 "/>
<path fill="none" stroke="black" d="M253,-12C253,-6 259,-1.01662e-14 265,-9.67431e-15"/>
<polyline fill="none" stroke="black" points="265,-9.67431e-15 371,-9.83828e-16 "/>
<path fill="none" stroke="black" d="M371,-9.83828e-16C377,-4.91914e-16 383,-6 383,-12"/>
<polyline fill="none" stroke="black" points="383,-12 383,-24 "/>
<path fill="none" stroke="black" d="M383,-24C383,-30 377,-36 371,-36"/>
<text text-anchor="middle" x="318" y="-14.4" font-family="Times Roman,serif" font-size="14.00">condition.log3g1</text>
</g>
<!-- condition.gateway&#45;&gt;condition.log3g1 -->
<g id="edge10" class="edge"><title>condition.gateway&#45;&gt;condition.log3g1</title>
<path fill="none" stroke="black" d="M202.424,-53.8686C217.713,-49.1237 234.326,-43.9678 250.064,-39.0835"/>
<polygon fill="black" stroke="black" points="251.217,-42.3904 259.731,-36.0836 249.143,-35.7049 251.217,-42.3904"/>
</g>
<!-- condition.join -->
<g id="node16" class="node"><title>condition.join</title>
<polyline fill="none" stroke="black" points="685,-90 601,-90 "/>
<path fill="none" stroke="black" d="M601,-90C595,-90 589,-84 589,-78"/>
<polyline fill="none" stroke="black" points="589,-78 589,-66 "/>
<path fill="none" stroke="black" d="M589,-66C589,-60 595,-54 601,-54"/>
<polyline fill="none" stroke="black" points="601,-54 685,-54 "/>
<path fill="none" stroke="black" d="M685,-54C691,-54 697,-60 697,-66"/>
<polyline fill="none" stroke="black" points="697,-66 697,-78 "/>
<path fill="none" stroke="black" d="M697,-78C697,-84 691,-90 685,-90"/>
<text text-anchor="middle" x="643" y="-68.4" font-family="Times Roman,serif" font-size="14.00">condition.join</text>
</g>
<!-- condition.log1g&#45;&gt;condition.join -->
<g id="edge14" class="edge"><title>condition.log1g&#45;&gt;condition.join</title>
<path fill="none" stroke="black" d="M538.715,-107.869C552.25,-103.213 566.936,-98.1622 580.897,-93.3603"/>
<polygon fill="black" stroke="black" points="582.106,-96.6458 590.424,-90.0836 579.829,-90.0264 582.106,-96.6458"/>
</g>
<!-- condition.log2g2 -->
<g id="node10" class="node"><title>condition.log2g2</title>
<polyline fill="none" stroke="black" points="539,-90 433,-90 "/>
<path fill="none" stroke="black" d="M433,-90C427,-90 421,-84 421,-78"/>
<polyline fill="none" stroke="black" points="421,-78 421,-66 "/>
<path fill="none" stroke="black" d="M421,-66C421,-60 427,-54 433,-54"/>
<polyline fill="none" stroke="black" points="433,-54 539,-54 "/>
<path fill="none" stroke="black" d="M539,-54C545,-54 551,-60 551,-66"/>
<polyline fill="none" stroke="black" points="551,-66 551,-78 "/>
<path fill="none" stroke="black" d="M551,-78C551,-84 545,-90 539,-90"/>
<text text-anchor="middle" x="486" y="-68.4" font-family="Times Roman,serif" font-size="14.00">condition.log2g2</text>
</g>
<!-- condition.log2g1&#45;&gt;condition.log2g2 -->
<g id="edge8" class="edge"><title>condition.log2g1&#45;&gt;condition.log2g2</title>
<path fill="none" stroke="black" d="M383.916,-72C392.505,-72 401.359,-72 410.096,-72"/>
<polygon fill="black" stroke="black" points="410.274,-75.5001 420.274,-72 410.274,-68.5001 410.274,-75.5001"/>
</g>
<!-- condition.log2g2&#45;&gt;condition.join -->
<g id="edge16" class="edge"><title>condition.log2g2&#45;&gt;condition.join</title>
<path fill="none" stroke="black" d="M551.672,-72C560.369,-72 569.282,-72 577.968,-72"/>
<polygon fill="black" stroke="black" points="578.034,-75.5001 588.034,-72 578.034,-68.5001 578.034,-75.5001"/>
</g>
<!-- condition.log3g2 -->
<g id="node14" class="node"><title>condition.log3g2</title>
<polyline fill="none" stroke="black" points="539,-36 433,-36 "/>
<path fill="none" stroke="black" d="M433,-36C427,-36 421,-30 421,-24"/>
<polyline fill="none" stroke="black" points="421,-24 421,-12 "/>
<path fill="none" stroke="black" d="M421,-12C421,-6 427,-1.01662e-14 433,-9.67431e-15"/>
<polyline fill="none" stroke="black" points="433,-9.67431e-15 539,-9.83828e-16 "/>
<path fill="none" stroke="black" d="M539,-9.83828e-16C545,-4.91914e-16 551,-6 551,-12"/>
<polyline fill="none" stroke="black" points="551,-12 551,-24 "/>
<path fill="none" stroke="black" d="M551,-24C551,-30 545,-36 539,-36"/>
<text text-anchor="middle" x="486" y="-14.4" font-family="Times Roman,serif" font-size="14.00">condition.log3g2</text>
</g>
<!-- condition.log3g1&#45;&gt;condition.log3g2 -->
<g id="edge12" class="edge"><title>condition.log3g1&#45;&gt;condition.log3g2</title>
<path fill="none" stroke="black" d="M383.916,-18C392.505,-18 401.359,-18 410.096,-18"/>
<polygon fill="black" stroke="black" points="410.274,-21.5001 420.274,-18 410.274,-14.5001 410.274,-21.5001"/>
</g>
<!-- condition.log3g2&#45;&gt;condition.join -->
<g id="edge18" class="edge"><title>condition.log3g2&#45;&gt;condition.join</title>
<path fill="none" stroke="black" d="M538.715,-36.1314C552.25,-40.7868 566.936,-45.8378 580.897,-50.6397"/>
<polygon fill="black" stroke="black" points="579.829,-53.9736 590.424,-53.9164 582.106,-47.3542 579.829,-53.9736"/>
</g>
<!-- condition.join&#45;&gt;end -->
<g id="edge20" class="edge"><title>condition.join&#45;&gt;end</title>
<path fill="none" stroke="black" d="M697.514,-72C706.461,-72 715.475,-72 723.656,-72"/>
<polygon fill="black" stroke="black" points="723.856,-75.5001 733.856,-72 723.856,-68.5001 723.856,-75.5001"/>
</g>
</g>
</svg>
