<?xml version="1.0" encoding="UTF-8" standalone="no"?>
<!DOCTYPE svg PUBLIC "-//W3C//DTD SVG 1.1//EN"
 "http://www.w3.org/Graphics/SVG/1.1/DTD/svg11.dtd">
<!-- Generated by graphviz version 2.26.3 (20100126.1600)
 -->
<!-- Title: condition.exampleFlow Pages: 1 -->
<svg width="638pt" height="190pt"
 viewBox="0.00 0.00 638.00 190.00" xmlns="http://www.w3.org/2000/svg" xmlns:xlink="http://www.w3.org/1999/xlink">
<g id="graph1" class="graph" transform="scale(1 1) rotate(0) translate(4 186)">
<title>condition.exampleFlow</title>
<polygon fill="white" stroke="white" points="-4,5 -4,-186 635,-186 635,5 -4,5"/>
<!-- start -->
<g id="node1" class="node"><title>start</title>
<ellipse fill="none" stroke="black" cx="18" cy="-89" rx="18" ry="18"/>
</g>
<!-- gateway -->
<g id="node4" class="node"><title>gateway</title>
<polyline fill="none" stroke="black" points="139,-107 87,-107 "/>
<path fill="none" stroke="black" d="M87,-107C81,-107 75,-101 75,-95"/>
<polyline fill="none" stroke="black" points="75,-95 75,-83 "/>
<path fill="none" stroke="black" d="M75,-83C75,-77 81,-71 87,-71"/>
<polyline fill="none" stroke="black" points="87,-71 139,-71 "/>
<path fill="none" stroke="black" d="M139,-71C145,-71 151,-77 151,-83"/>
<polyline fill="none" stroke="black" points="151,-83 151,-95 "/>
<path fill="none" stroke="black" d="M151,-95C151,-101 145,-107 139,-107"/>
<text text-anchor="middle" x="113" y="-85.4" font-family="Times Roman,serif" font-size="14.00">gateway</text>
</g>
<!-- start&#45;&gt;gateway -->
<g id="edge2" class="edge"><title>start&#45;&gt;gateway</title>
<path fill="none" stroke="black" d="M36.317,-89C44.3204,-89 54.1285,-89 64.0222,-89"/>
<polygon fill="black" stroke="black" points="64.2914,-92.5001 74.2914,-89 64.2913,-85.5001 64.2914,-92.5001"/>
</g>
<!-- end -->
<g id="node2" class="node"><title>end</title>
<ellipse fill="none" stroke="black" cx="608" cy="-87" rx="18" ry="18"/>
<ellipse fill="none" stroke="black" cx="608" cy="-87" rx="22" ry="22"/>
</g>
<!-- log1g -->
<g id="node6" class="node"><title>log1g</title>
<polyline fill="none" stroke="black" points="362,-182 332,-182 "/>
<path fill="none" stroke="black" d="M332,-182C326,-182 320,-176 320,-170"/>
<polyline fill="none" stroke="black" points="320,-170 320,-158 "/>
<path fill="none" stroke="black" d="M320,-158C320,-152 326,-146 332,-146"/>
<polyline fill="none" stroke="black" points="332,-146 362,-146 "/>
<path fill="none" stroke="black" d="M362,-146C368,-146 374,-152 374,-158"/>
<polyline fill="none" stroke="black" points="374,-158 374,-170 "/>
<path fill="none" stroke="black" d="M374,-170C374,-176 368,-182 362,-182"/>
<text text-anchor="middle" x="347" y="-160.4" font-family="Times Roman,serif" font-size="14.00">log1g</text>
</g>
<!-- gateway&#45;&gt;log1g -->
<g id="edge4" class="edge"><title>gateway&#45;&gt;log1g</title>
<path fill="none" stroke="black" d="M138.167,-107.103C153.436,-118.086 170,-130 170,-130 170,-130 238,-145 238,-145 238,-145 278.297,-152.024 309.887,-157.531"/>
<polygon fill="black" stroke="black" points="309.323,-160.985 319.776,-159.255 310.525,-154.089 309.323,-160.985"/>
<text text-anchor="middle" x="195" y="-145.4" font-family="Times Roman,serif" font-size="14.00">one</text>
</g>
<!-- log2g1 -->
<g id="node8" class="node"><title>log2g1</title>
<polyline fill="none" stroke="black" points="289,-136 251,-136 "/>
<path fill="none" stroke="black" d="M251,-136C245,-136 239,-130 239,-124"/>
<polyline fill="none" stroke="black" points="239,-124 239,-112 "/>
<path fill="none" stroke="black" d="M239,-112C239,-106 245,-100 251,-100"/>
<polyline fill="none" stroke="black" points="251,-100 289,-100 "/>
<path fill="none" stroke="black" d="M289,-100C295,-100 301,-106 301,-112"/>
<polyline fill="none" stroke="black" points="301,-112 301,-124 "/>
<path fill="none" stroke="black" d="M301,-124C301,-130 295,-136 289,-136"/>
<text text-anchor="middle" x="270" y="-114.4" font-family="Times Roman,serif" font-size="14.00">log2g1</text>
</g>
<!-- gateway&#45;&gt;log2g1 -->
<g id="edge6" class="edge"><title>gateway&#45;&gt;log2g1</title>
<path fill="none" stroke="black" d="M151.809,-96.1685C175.064,-100.464 204.626,-105.925 228.367,-110.31"/>
<polygon fill="black" stroke="black" points="228.016,-113.804 238.485,-112.179 229.287,-106.921 228.016,-113.804"/>
<text text-anchor="middle" x="195" y="-113.4" font-family="Times Roman,serif" font-size="14.00">two</text>
</g>
<!-- log3g1 -->
<g id="node12" class="node"><title>log3g1</title>
<polyline fill="none" stroke="black" points="289,-82 251,-82 "/>
<path fill="none" stroke="black" d="M251,-82C245,-82 239,-76 239,-70"/>
<polyline fill="none" stroke="black" points="239,-70 239,-58 "/>
<path fill="none" stroke="black" d="M239,-58C239,-52 245,-46 251,-46"/>
<polyline fill="none" stroke="black" points="251,-46 289,-46 "/>
<path fill="none" stroke="black" d="M289,-46C295,-46 301,-52 301,-58"/>
<polyline fill="none" stroke="black" points="301,-58 301,-70 "/>
<path fill="none" stroke="black" d="M301,-70C301,-76 295,-82 289,-82"/>
<text text-anchor="middle" x="270" y="-60.4" font-family="Times Roman,serif" font-size="14.00">log3g1</text>
</g>
<!-- gateway&#45;&gt;log3g1 -->
<g id="edge10" class="edge"><title>gateway&#45;&gt;log3g1</title>
<path fill="none" stroke="black" d="M151.651,-77.4725C161.817,-74.4407 170,-72 170,-72 170,-72 200.714,-69.5429 228.098,-67.3522"/>
<polygon fill="black" stroke="black" points="228.67,-70.8176 238.359,-66.5312 228.112,-63.8399 228.67,-70.8176"/>
<text text-anchor="middle" x="195" y="-77.4" font-family="Times Roman,serif" font-size="14.00">gto</text>
</g>
<!-- log4g -->
<g id="node16" class="node"><title>log4g</title>
<polyline fill="none" stroke="black" points="362,-36 332,-36 "/>
<path fill="none" stroke="black" d="M332,-36C326,-36 320,-30 320,-24"/>
<polyline fill="none" stroke="black" points="320,-24 320,-12 "/>
<path fill="none" stroke="black" d="M320,-12C320,-6 326,-9.4739e-15 332,-8.28967e-15"/>
<polyline fill="none" stroke="black" points="332,-8.28967e-15 362,-2.36848e-15 "/>
<path fill="none" stroke="black" d="M362,-2.36848e-15C368,-1.18424e-15 374,-6 374,-12"/>
<polyline fill="none" stroke="black" points="374,-12 374,-24 "/>
<path fill="none" stroke="black" d="M374,-24C374,-30 368,-36 362,-36"/>
<text text-anchor="middle" x="347" y="-14.4" font-family="Times Roman,serif" font-size="14.00">log4g</text>
</g>
<!-- gateway&#45;&gt;log4g -->
<g id="edge14" class="edge"><title>gateway&#45;&gt;log4g</title>
<path fill="none" stroke="black" d="M137.173,-70.7641C152.708,-59.0445 170,-46 170,-46 170,-46 257.596,-32.143 309.543,-23.9254"/>
<polygon fill="black" stroke="black" points="310.401,-27.3332 319.732,-22.3136 309.308,-20.4192 310.401,-27.3332"/>
<text text-anchor="middle" x="195" y="-51.4" font-family="Times Roman,serif" font-size="14.00">default</text>
</g>
<!-- join -->
<g id="node18" class="node"><title>join</title>
<polyline fill="none" stroke="black" points="536,-105 506,-105 "/>
<path fill="none" stroke="black" d="M506,-105C500,-105 494,-99 494,-93"/>
<polyline fill="none" stroke="black" points="494,-93 494,-81 "/>
<path fill="none" stroke="black" d="M494,-81C494,-75 500,-69 506,-69"/>
<polyline fill="none" stroke="black" points="506,-69 536,-69 "/>
<path fill="none" stroke="black" d="M536,-69C542,-69 548,-75 548,-81"/>
<polyline fill="none" stroke="black" points="548,-81 548,-93 "/>
<path fill="none" stroke="black" d="M548,-93C548,-99 542,-105 536,-105"/>
<text text-anchor="middle" x="521" y="-83.4" font-family="Times Roman,serif" font-size="14.00">join</text>
</g>
<!-- log1g&#45;&gt;join -->
<g id="edge16" class="edge"><title>log1g&#45;&gt;join</title>
<path fill="none" stroke="black" d="M374.224,-159.255C406.509,-153.627 456,-145 456,-145 456,-145 475.334,-127.749 492.912,-112.063"/>
<polygon fill="black" stroke="black" points="495.659,-114.303 500.79,-105.034 490.998,-109.08 495.659,-114.303"/>
</g>
<!-- log2g2 -->
<g id="node10" class="node"><title>log2g2</title>
<polyline fill="none" stroke="black" points="443,-136 405,-136 "/>
<path fill="none" stroke="black" d="M405,-136C399,-136 393,-130 393,-124"/>
<polyline fill="none" stroke="black" points="393,-124 393,-112 "/>
<path fill="none" stroke="black" d="M393,-112C393,-106 399,-100 405,-100"/>
<polyline fill="none" stroke="black" points="405,-100 443,-100 "/>
<path fill="none" stroke="black" d="M443,-100C449,-100 455,-106 455,-112"/>
<polyline fill="none" stroke="black" points="455,-112 455,-124 "/>
<path fill="none" stroke="black" d="M455,-124C455,-130 449,-136 443,-136"/>
<text text-anchor="middle" x="424" y="-114.4" font-family="Times Roman,serif" font-size="14.00">log2g2</text>
</g>
<!-- log2g1&#45;&gt;log2g2 -->
<g id="edge8" class="edge"><title>log2g1&#45;&gt;log2g2</title>
<path fill="none" stroke="black" d="M301.536,-118C324.816,-118 356.733,-118 382.148,-118"/>
<polygon fill="black" stroke="black" points="382.242,-121.5 392.242,-118 382.242,-114.5 382.242,-121.5"/>
</g>
<!-- log2g2&#45;&gt;join -->
<g id="edge18" class="edge"><title>log2g2&#45;&gt;join</title>
<path fill="none" stroke="black" d="M455.761,-107.849C464.769,-104.971 474.655,-101.811 483.947,-98.8418"/>
<polygon fill="black" stroke="black" points="485.266,-102.095 493.726,-95.7164 483.135,-95.4268 485.266,-102.095"/>
</g>
<!-- log3g2 -->
<g id="node14" class="node"><title>log3g2</title>
<polyline fill="none" stroke="black" points="443,-82 405,-82 "/>
<path fill="none" stroke="black" d="M405,-82C399,-82 393,-76 393,-70"/>
<polyline fill="none" stroke="black" points="393,-70 393,-58 "/>
<path fill="none" stroke="black" d="M393,-58C393,-52 399,-46 405,-46"/>
<polyline fill="none" stroke="black" points="405,-46 443,-46 "/>
<path fill="none" stroke="black" d="M443,-46C449,-46 455,-52 455,-58"/>
<polyline fill="none" stroke="black" points="455,-58 455,-70 "/>
<path fill="none" stroke="black" d="M455,-70C455,-76 449,-82 443,-82"/>
<text text-anchor="middle" x="424" y="-60.4" font-family="Times Roman,serif" font-size="14.00">log3g2</text>
</g>
<!-- log3g1&#45;&gt;log3g2 -->
<g id="edge12" class="edge"><title>log3g1&#45;&gt;log3g2</title>
<path fill="none" stroke="black" d="M301.536,-64C324.816,-64 356.733,-64 382.148,-64"/>
<polygon fill="black" stroke="black" points="382.242,-67.5001 392.242,-64 382.242,-60.5001 382.242,-67.5001"/>
</g>
<!-- log3g2&#45;&gt;join -->
<g id="edge20" class="edge"><title>log3g2&#45;&gt;join</title>
<path fill="none" stroke="black" d="M455.761,-71.5311C464.769,-73.667 474.655,-76.011 483.947,-78.2142"/>
<polygon fill="black" stroke="black" points="483.188,-81.6313 493.726,-80.533 484.803,-74.8202 483.188,-81.6313"/>
</g>
<!-- log4g&#45;&gt;join -->
<g id="edge22" class="edge"><title>log4g&#45;&gt;join</title>
<path fill="none" stroke="black" d="M374.224,-22.7455C406.509,-28.3732 456,-37 456,-37 456,-37 472.923,-50.018 489.5,-62.7689"/>
<polygon fill="black" stroke="black" points="487.473,-65.6259 497.534,-68.9489 491.741,-60.0775 487.473,-65.6259"/>
</g>
<!-- join&#45;&gt;end -->
<g id="edge24" class="edge"><title>join&#45;&gt;end</title>
<path fill="none" stroke="black" d="M548.05,-87C556.798,-87 566.587,-87 575.677,-87"/>
<polygon fill="black" stroke="black" points="575.923,-90.5001 585.923,-87 575.923,-83.5001 575.923,-90.5001"/>
</g>
</g>
</svg>
