<?xml version="1.0" encoding="UTF-8" standalone="no"?>
<!DOCTYPE svg PUBLIC "-//W3C//DTD SVG 1.1//EN"
 "http://www.w3.org/Graphics/SVG/1.1/DTD/svg11.dtd">
<!-- Generated by graphviz version 2.26.3 (20100126.1600)
 -->
<!-- Title: FlowDatabase Pages: 1 -->
<svg width="1498pt" height="660pt"
 viewBox="0.00 0.00 1498.00 659.62" xmlns="http://www.w3.org/2000/svg" xmlns:xlink="http://www.w3.org/1999/xlink">
<g id="graph1" class="graph" transform="scale(1 1) rotate(0) translate(4 655.62)">
<title>FlowDatabase</title>
<polygon fill="white" stroke="white" points="-4,5 -4,-655.62 1495,-655.62 1495,5 -4,5"/>
<!-- task -->
<g id="node1" class="node"><title>task</title>
<ellipse fill="none" stroke="black" cx="750" cy="-340.62" rx="32.0265" ry="18.3848"/>
<text text-anchor="middle" x="750" y="-337.02" font-family="Times Roman,serif" font-size="14.00">task</text>
</g>
<!-- activity -->
<g id="node3" class="node"><title>activity</title>
<ellipse fill="none" stroke="black" cx="1109" cy="-419.62" rx="48.0833" ry="18.3848"/>
<text text-anchor="middle" x="1109" y="-416.02" font-family="Times Roman,serif" font-size="14.00">activity</text>
</g>
<!-- task&#45;&gt;activity -->
<g id="edge2" class="edge"><title>task&#45;&gt;activity</title>
<path fill="none" stroke="black" d="M775.559,-352.069C794.609,-360.14 821.463,-370.553 846,-376.62 911.235,-392.749 929.743,-384.407 996,-395.62 1016.46,-399.082 1038.84,-403.666 1058.25,-407.9"/>
<polygon fill="black" stroke="black" points="1057.58,-411.336 1068.1,-410.074 1059.09,-404.501 1057.58,-411.336"/>
<text text-anchor="middle" x="921" y="-401.02" font-family="Times Roman,serif" font-size="14.00">task_process_fkey</text>
</g>
<!-- instance -->
<g id="node20" class="node"><title>instance</title>
<ellipse fill="none" stroke="black" cx="1109" cy="-234.62" rx="51.8276" ry="18.3848"/>
<text text-anchor="middle" x="1109" y="-231.02" font-family="Times Roman,serif" font-size="14.00">instance</text>
</g>
<!-- task&#45;&gt;instance -->
<g id="edge20" class="edge"><title>task&#45;&gt;instance</title>
<path fill="none" stroke="black" d="M767.77,-325.26C786.09,-310.314 816.12,-288.212 846,-276.62 908.88,-252.226 929.409,-264.323 996,-253.62 1014.23,-250.69 1034.09,-247.388 1052.01,-244.368"/>
<polygon fill="black" stroke="black" points="1052.74,-247.793 1062.02,-242.675 1051.57,-240.891 1052.74,-247.793"/>
<text text-anchor="middle" x="921" y="-282.02" font-family="Times Roman,serif" font-size="14.00">task_instance_fkey</text>
</g>
<!-- process -->
<g id="node28" class="node"><title>process</title>
<ellipse fill="none" stroke="black" cx="1442" cy="-308.62" rx="48.0833" ry="18.3848"/>
<text text-anchor="middle" x="1442" y="-305.02" font-family="Times Roman,serif" font-size="14.00">process</text>
</g>
<!-- activity&#45;&gt;process -->
<g id="edge34" class="edge"><title>activity&#45;&gt;process</title>
<path fill="none" stroke="black" d="M1144.95,-407.636C1205.82,-387.347 1329.06,-346.266 1396.08,-323.925"/>
<polygon fill="black" stroke="black" points="1397.56,-327.121 1405.94,-320.638 1395.35,-320.48 1397.56,-327.121"/>
<text text-anchor="middle" x="1299" y="-386.02" font-family="Times Roman,serif" font-size="14.00">activity_process_fkey</text>
</g>
<!-- state -->
<g id="node4" class="node"><title>state</title>
<ellipse fill="none" stroke="black" cx="400" cy="-73.6199" rx="36.7696" ry="18.3848"/>
<text text-anchor="middle" x="400" y="-70.0199" font-family="Times Roman,serif" font-size="14.00">state</text>
</g>
<!-- state&#45;&gt;activity -->
<g id="edge4" class="edge"><title>state&#45;&gt;activity</title>
<path fill="none" stroke="black" d="M406.77,-91.752C431.1,-153.946 520.769,-359.1 672,-437.62 801.192,-504.697 981.955,-461.218 1064.6,-435.148"/>
<polygon fill="black" stroke="black" points="1065.74,-438.459 1074.18,-432.064 1063.59,-431.796 1065.74,-438.459"/>
<text text-anchor="middle" x="750" y="-479.02" font-family="Times Roman,serif" font-size="14.00">state_process_fkey</text>
</g>
<!-- branch -->
<g id="node16" class="node"><title>branch</title>
<ellipse fill="none" stroke="black" cx="750" cy="-19.6199" rx="44.7575" ry="18.3848"/>
<text text-anchor="middle" x="750" y="-16.0199" font-family="Times Roman,serif" font-size="14.00">branch</text>
</g>
<!-- state&#45;&gt;branch -->
<g id="edge16" class="edge"><title>state&#45;&gt;branch</title>
<path fill="none" stroke="black" d="M430.327,-62.8835C451.758,-55.7308 481.303,-46.7364 508,-41.6199 571.244,-29.4989 645.106,-24.0108 694.438,-21.5552"/>
<polygon fill="black" stroke="black" points="694.757,-25.0441 704.58,-21.0759 694.426,-18.0519 694.757,-25.0441"/>
<text text-anchor="middle" x="581" y="-47.0199" font-family="Times Roman,serif" font-size="14.00">state_instance_fkey1</text>
</g>
<!-- state&#45;&gt;instance -->
<g id="edge28" class="edge"><title>state&#45;&gt;instance</title>
<path fill="none" stroke="black" d="M437.4,-72.9006C561.669,-70.8775 955.255,-67.5526 996,-105.62 1029.64,-137.046 983.155,-173.448 1014,-207.62 1022.88,-217.458 1035.06,-223.817 1047.73,-227.9"/>
<polygon fill="black" stroke="black" points="1046.91,-231.303 1057.48,-230.599 1048.78,-224.557 1046.91,-231.303"/>
<text text-anchor="middle" x="750" y="-83.0199" font-family="Times Roman,serif" font-size="14.00">state_instance_fkey</text>
</g>
<!-- flow -->
<g id="node6" class="node"><title>flow</title>
<ellipse fill="none" stroke="black" cx="750" cy="-546.62" rx="33.234" ry="18.3848"/>
<text text-anchor="middle" x="750" y="-543.02" font-family="Times Roman,serif" font-size="14.00">flow</text>
</g>
<!-- flow&#45;&gt;activity -->
<g id="edge6" class="edge"><title>flow&#45;&gt;activity</title>
<path fill="none" stroke="black" d="M783.202,-546.291C841.305,-545.283 958.788,-541.191 996,-524.62 1035.34,-507.1 1069.85,-470.155 1090.07,-445.105"/>
<polygon fill="black" stroke="black" points="1092.93,-447.132 1096.37,-437.111 1087.43,-442.801 1092.93,-447.132"/>
<text text-anchor="middle" x="921" y="-550.02" font-family="Times Roman,serif" font-size="14.00">flow_process_fkey2</text>
</g>
<!-- flow&#45;&gt;activity -->
<g id="edge12" class="edge"><title>flow&#45;&gt;activity</title>
<path fill="none" stroke="black" d="M773.296,-533.503C792.276,-523.424 820.083,-510.013 846,-502.62 910.622,-484.186 932.226,-504.801 996,-483.62 1025.71,-473.751 1056.44,-455.757 1078.34,-441.357"/>
<polygon fill="black" stroke="black" points="1080.51,-444.117 1086.86,-435.64 1076.61,-438.304 1080.51,-444.117"/>
<text text-anchor="middle" x="921" y="-508.02" font-family="Times Roman,serif" font-size="14.00">flow_process_fkey1</text>
</g>
<!-- flow&#45;&gt;process -->
<g id="edge40" class="edge"><title>flow&#45;&gt;process</title>
<path fill="none" stroke="black" d="M780.254,-554.309C827.008,-564.997 919.424,-581.35 996,-565.62 1176.01,-528.641 1233.33,-518.449 1376,-402.62 1398.69,-384.201 1417.03,-356.064 1428.57,-335.372"/>
<polygon fill="black" stroke="black" points="1431.71,-336.914 1433.38,-326.451 1425.55,-333.59 1431.71,-336.914"/>
<text text-anchor="middle" x="1109" y="-567.02" font-family="Times Roman,serif" font-size="14.00">flow_process_fkey</text>
</g>
<!-- error -->
<g id="node8" class="node"><title>error</title>
<ellipse fill="none" stroke="black" cx="750" cy="-255.62" rx="36.0624" ry="18.3848"/>
<text text-anchor="middle" x="750" y="-252.02" font-family="Times Roman,serif" font-size="14.00">error</text>
</g>
<!-- error&#45;&gt;activity -->
<g id="edge8" class="edge"><title>error&#45;&gt;activity</title>
<path fill="none" stroke="black" d="M772.316,-270.037C788.565,-281.037 810.668,-297.073 828,-313.62 837.138,-322.344 834.947,-329.502 846,-335.62 904.794,-368.163 932.297,-333.226 996,-354.62 1025.79,-364.625 1056.51,-382.902 1078.39,-397.533"/>
<polygon fill="black" stroke="black" points="1076.67,-400.596 1086.9,-403.341 1080.61,-394.814 1076.67,-400.596"/>
<text text-anchor="middle" x="921" y="-360.02" font-family="Times Roman,serif" font-size="14.00">error_process_fkey</text>
</g>
<!-- error&#45;&gt;instance -->
<g id="edge26" class="edge"><title>error&#45;&gt;instance</title>
<path fill="none" stroke="black" d="M782.182,-247.222C800.703,-242.817 824.497,-237.877 846,-235.62 914.471,-228.432 993.522,-229.364 1046.94,-231.345"/>
<polygon fill="black" stroke="black" points="1046.81,-234.842 1056.94,-231.739 1047.08,-227.848 1046.81,-234.842"/>
<text text-anchor="middle" x="921" y="-241.02" font-family="Times Roman,serif" font-size="14.00">error_instance_fkey</text>
</g>
<!-- log -->
<g id="node10" class="node"><title>log</title>
<ellipse fill="none" stroke="black" cx="750" cy="-179.62" rx="27" ry="18.3848"/>
<text text-anchor="middle" x="750" y="-176.02" font-family="Times Roman,serif" font-size="14.00">log</text>
</g>
<!-- log&#45;&gt;activity -->
<g id="edge10" class="edge"><title>log&#45;&gt;activity</title>
<path fill="none" stroke="black" d="M777.064,-179.287C833.845,-179.136 962.906,-181.837 996,-208.62 1015.34,-224.27 1003.53,-239.053 1014,-261.62 1036.56,-310.244 1070.26,-362.866 1090.87,-393.447"/>
<polygon fill="black" stroke="black" points="1088.05,-395.529 1096.56,-401.834 1093.84,-391.595 1088.05,-395.529"/>
<text text-anchor="middle" x="921" y="-214.02" font-family="Times Roman,serif" font-size="14.00">log_process_fkey</text>
</g>
<!-- log&#45;&gt;instance -->
<g id="edge24" class="edge"><title>log&#45;&gt;instance</title>
<path fill="none" stroke="black" d="M774.1,-171.185C793.3,-164.933 821.01,-156.944 846,-153.62 912.085,-144.829 941.917,-114.639 996,-153.62 1016.52,-168.412 995.715,-190.137 1014,-207.62 1023.58,-216.779 1036.03,-222.869 1048.76,-226.908"/>
<polygon fill="black" stroke="black" points="1047.92,-230.308 1058.49,-229.613 1049.8,-223.564 1047.92,-230.308"/>
<text text-anchor="middle" x="921" y="-159.02" font-family="Times Roman,serif" font-size="14.00">log_instance_fkey</text>
</g>
<!-- call -->
<g id="node13" class="node"><title>call</title>
<ellipse fill="none" stroke="black" cx="750" cy="-410.62" rx="27.0758" ry="18.3848"/>
<text text-anchor="middle" x="750" y="-407.02" font-family="Times Roman,serif" font-size="14.00">call</text>
</g>
<!-- call&#45;&gt;activity -->
<g id="edge14" class="edge"><title>call&#45;&gt;activity</title>
<path fill="none" stroke="black" d="M777.284,-413.085C796.483,-414.703 822.791,-416.686 846,-417.62 916.361,-420.45 997.393,-420.596 1050.7,-420.265"/>
<polygon fill="black" stroke="black" points="1051.01,-423.763 1060.99,-420.193 1050.96,-416.763 1051.01,-423.763"/>
<text text-anchor="middle" x="921" y="-426.02" font-family="Times Roman,serif" font-size="14.00">call_process_fkey</text>
</g>
<!-- call&#45;&gt;instance -->
<g id="edge30" class="edge"><title>call&#45;&gt;instance</title>
<path fill="none" stroke="black" d="M774.633,-402.527C791.803,-395.718 814.048,-384.375 828,-367.62 844.188,-348.179 826.449,-329.675 846,-313.62 871.967,-292.297 963.972,-304.776 996,-294.62 1024.66,-285.533 1054.6,-269.282 1076.46,-255.983"/>
<polygon fill="black" stroke="black" points="1078.35,-258.926 1085.01,-250.681 1074.66,-252.977 1078.35,-258.926"/>
<text text-anchor="middle" x="921" y="-319.02" font-family="Times Roman,serif" font-size="14.00">call_instance_fkey</text>
</g>
<!-- branch&#45;&gt;instance -->
<g id="edge22" class="edge"><title>branch&#45;&gt;instance</title>
<path fill="none" stroke="black" d="M788.51,-9.80282C842.775,1.47575 941.219,12.1396 996,-41.6199 1022.48,-67.6092 990.069,-179.263 1014,-207.62 1022.64,-217.853 1034.84,-224.355 1047.64,-228.451"/>
<polygon fill="black" stroke="black" points="1046.92,-231.883 1057.49,-231.136 1048.76,-225.129 1046.92,-231.883"/>
<text text-anchor="middle" x="921" y="-47.0199" font-family="Times Roman,serif" font-size="14.00">branch_instance_fkey</text>
</g>
<!-- flows -->
<g id="node17" class="node"><title>flows</title>
<ellipse fill="none" stroke="black" cx="103" cy="-73.6199" rx="36.977" ry="18.3848"/>
<text text-anchor="middle" x="103" y="-70.0199" font-family="Times Roman,serif" font-size="14.00">flows</text>
</g>
<!-- flows&#45;&gt;state -->
<g id="edge42" class="edge"><title>flows&#45;&gt;state</title>
<path fill="none" stroke="black" d="M140.615,-73.6199C194.509,-73.6199 293.672,-73.6199 352.541,-73.6199"/>
<polygon fill="black" stroke="black" points="352.69,-77.12 362.69,-73.6199 352.69,-70.12 352.69,-77.12"/>
<text text-anchor="middle" x="258" y="-79.0199" font-family="Times Roman,serif" font-size="14.00">_RETURN</text>
</g>
<!-- flows&#45;&gt;branch -->
<g id="edge18" class="edge"><title>flows&#45;&gt;branch</title>
<path fill="none" stroke="black" d="M135.67,-64.6183C176.203,-53.8923 247.6,-36.4418 310,-28.6199 447.547,-11.3784 611.135,-14.0552 694.764,-17.0774"/>
<polygon fill="black" stroke="black" points="694.679,-20.5765 704.803,-17.4559 694.942,-13.5815 694.679,-20.5765"/>
<text text-anchor="middle" x="400" y="-34.0199" font-family="Times Roman,serif" font-size="14.00">_RETURN</text>
</g>
<!-- flows&#45;&gt;instance -->
<g id="edge32" class="edge"><title>flows&#45;&gt;instance</title>
<path fill="none" stroke="black" d="M137.254,-80.9982C161.391,-85.9144 194.531,-92.0976 224,-95.6199 262.016,-100.164 271.767,-98.589 310,-100.62 348.101,-102.644 966.576,-109.329 996,-133.62 1022.1,-155.169 990.529,-183.232 1014,-207.62 1023.19,-217.169 1035.49,-223.414 1048.19,-227.478"/>
<polygon fill="black" stroke="black" points="1047.36,-230.879 1057.93,-230.18 1049.23,-224.134 1047.36,-230.879"/>
<text text-anchor="middle" x="581" y="-114.02" font-family="Times Roman,serif" font-size="14.00">_RETURN</text>
</g>
<!-- instance&#45;&gt;process -->
<g id="edge36" class="edge"><title>instance&#45;&gt;process</title>
<path fill="none" stroke="black" d="M1153.22,-244.447C1214.6,-258.087 1325.39,-282.707 1390.45,-297.164"/>
<polygon fill="black" stroke="black" points="1389.96,-300.641 1400.48,-299.394 1391.48,-293.808 1389.96,-300.641"/>
<text text-anchor="middle" x="1299" y="-299.02" font-family="Times Roman,serif" font-size="14.00">instance_process_fkey</text>
</g>
<!-- input -->
<g id="node30" class="node"><title>input</title>
<ellipse fill="none" stroke="black" cx="1109" cy="-180.62" rx="36.977" ry="18.3848"/>
<text text-anchor="middle" x="1109" y="-177.02" font-family="Times Roman,serif" font-size="14.00">input</text>
</g>
<!-- input&#45;&gt;process -->
<g id="edge38" class="edge"><title>input&#45;&gt;process</title>
<path fill="none" stroke="black" d="M1146.38,-182.082C1200.35,-185.638 1301.74,-197.832 1376,-239.62 1394.84,-250.221 1411.61,-267.926 1423.53,-282.747"/>
<polygon fill="black" stroke="black" points="1421.08,-285.299 1429.97,-291.065 1426.62,-281.015 1421.08,-285.299"/>
<text text-anchor="middle" x="1299" y="-245.02" font-family="Times Roman,serif" font-size="14.00">input_process_fkey</text>
</g>
<!-- dependencies -->
<g id="node34" class="node"><title>dependencies</title>
<ellipse fill="none" stroke="black" cx="750" cy="-633.62" rx="77.7817" ry="18.3848"/>
<text text-anchor="middle" x="750" y="-630.02" font-family="Times Roman,serif" font-size="14.00">dependencies</text>
</g>
<!-- database_objects -->
<g id="node36" class="node"><title>database_objects</title>
<ellipse fill="none" stroke="black" cx="1109" cy="-633.62" rx="94.7523" ry="18.3848"/>
<text text-anchor="middle" x="1109" y="-630.02" font-family="Times Roman,serif" font-size="14.00">database_objects</text>
</g>
<!-- dependencies&#45;&gt;database_objects -->
<g id="edge44" class="edge"><title>dependencies&#45;&gt;database_objects</title>
<path fill="none" stroke="black" d="M828.34,-633.62C879.713,-633.62 947.498,-633.62 1003.58,-633.62"/>
<polygon fill="black" stroke="black" points="1003.91,-637.12 1013.91,-633.62 1003.91,-630.12 1003.91,-637.12"/>
<text text-anchor="middle" x="921" y="-639.02" font-family="Times Roman,serif" font-size="14.00">_RETURN</text>
</g>
<!-- dependency_list -->
<g id="node37" class="node"><title>dependency_list</title>
<ellipse fill="none" stroke="black" cx="400" cy="-633.62" rx="89.8026" ry="18.3848"/>
<text text-anchor="middle" x="400" y="-630.02" font-family="Times Roman,serif" font-size="14.00">dependency_list</text>
</g>
<!-- dependency_list&#45;&gt;dependencies -->
<g id="edge46" class="edge"><title>dependency_list&#45;&gt;dependencies</title>
<path fill="none" stroke="black" d="M490.134,-633.62C542.827,-633.62 609.064,-633.62 661.478,-633.62"/>
<polygon fill="black" stroke="black" points="661.768,-637.12 671.768,-633.62 661.768,-630.12 661.768,-637.12"/>
<text text-anchor="middle" x="581" y="-639.02" font-family="Times Roman,serif" font-size="14.00">_RETURN</text>
</g>
<!-- dependency_graph -->
<g id="node39" class="node"><title>dependency_graph</title>
<ellipse fill="none" stroke="black" cx="103" cy="-633.62" rx="103.238" ry="18.3848"/>
<text text-anchor="middle" x="103" y="-630.02" font-family="Times Roman,serif" font-size="14.00">dependency_graph</text>
</g>
<!-- dependency_graph&#45;&gt;dependency_list -->
<g id="edge48" class="edge"><title>dependency_graph&#45;&gt;dependency_list</title>
<path fill="none" stroke="black" d="M206.043,-633.62C236.298,-633.62 269.34,-633.62 299.438,-633.62"/>
<polygon fill="black" stroke="black" points="299.524,-637.12 309.524,-633.62 299.524,-630.12 299.524,-637.12"/>
<text text-anchor="middle" x="258" y="-639.02" font-family="Times Roman,serif" font-size="14.00">_RETURN</text>
</g>
</g>
</svg>
