<?xml version="1.0" encoding="UTF-8" standalone="no"?>
<!DOCTYPE svg PUBLIC "-//W3C//DTD SVG 1.1//EN"
 "http://www.w3.org/Graphics/SVG/1.1/DTD/svg11.dtd">
<!-- Generated by graphviz version 2.26.3 (20100126.1600)
 -->
<!-- Title: FlowDatabase Pages: 1 -->
<svg width="1498pt" height="716pt"
 viewBox="0.00 0.00 1498.00 716.00" xmlns="http://www.w3.org/2000/svg" xmlns:xlink="http://www.w3.org/1999/xlink">
<g id="graph1" class="graph" transform="scale(1 1) rotate(0) translate(4 712)">
<title>FlowDatabase</title>
<polygon fill="white" stroke="white" points="-4,5 -4,-712 1495,-712 1495,5 -4,5"/>
<!-- activity -->
<g id="node1" class="node"><title>activity</title>
<ellipse fill="none" stroke="black" cx="1109" cy="-195" rx="48.0833" ry="18.3848"/>
<text text-anchor="middle" x="1109" y="-191.4" font-family="Times Roman,serif" font-size="14.00">activity</text>
</g>
<!-- process -->
<g id="node3" class="node"><title>process</title>
<ellipse fill="none" stroke="black" cx="1442" cy="-111" rx="48.0833" ry="18.3848"/>
<text text-anchor="middle" x="1442" y="-107.4" font-family="Times Roman,serif" font-size="14.00">process</text>
</g>
<!-- activity&#45;&gt;process -->
<g id="edge2" class="edge"><title>activity&#45;&gt;process</title>
<path fill="none" stroke="black" d="M1148.84,-184.951C1209.76,-169.584 1325.96,-140.27 1392.31,-123.535"/>
<polygon fill="black" stroke="black" points="1393.28,-126.9 1402.12,-121.06 1391.57,-120.113 1393.28,-126.9"/>
<text text-anchor="middle" x="1299" y="-171.4" font-family="Times Roman,serif" font-size="14.00">activity_process_fkey</text>
</g>
<!-- branch -->
<g id="node4" class="node"><title>branch</title>
<ellipse fill="none" stroke="black" cx="750" cy="-586" rx="44.7575" ry="18.3848"/>
<text text-anchor="middle" x="750" y="-582.4" font-family="Times Roman,serif" font-size="14.00">branch</text>
</g>
<!-- instance -->
<g id="node6" class="node"><title>instance</title>
<ellipse fill="none" stroke="black" cx="1109" cy="-458" rx="51.8276" ry="18.3848"/>
<text text-anchor="middle" x="1109" y="-454.4" font-family="Times Roman,serif" font-size="14.00">instance</text>
</g>
<!-- branch&#45;&gt;instance -->
<g id="edge4" class="edge"><title>branch&#45;&gt;instance</title>
<path fill="none" stroke="black" d="M795.886,-585.275C846.78,-582.966 930.365,-574.638 996,-546 1030.51,-530.944 1063.72,-502.916 1085.1,-482.526"/>
<polygon fill="black" stroke="black" points="1087.7,-484.881 1092.43,-475.398 1082.82,-479.865 1087.7,-484.881"/>
<text text-anchor="middle" x="921" y="-586.4" font-family="Times Roman,serif" font-size="14.00">branch_instance_fkey</text>
</g>
<!-- instance&#45;&gt;process -->
<g id="edge34" class="edge"><title>instance&#45;&gt;process</title>
<path fill="none" stroke="black" d="M1126.62,-441.043C1170.01,-399.09 1285.12,-286.687 1376,-188 1391.5,-171.171 1408.27,-151.588 1421.02,-136.383"/>
<polygon fill="black" stroke="black" points="1423.94,-138.35 1427.66,-128.432 1418.57,-133.863 1423.94,-138.35"/>
<text text-anchor="middle" x="1299" y="-349.4" font-family="Times Roman,serif" font-size="14.00">instance_process_fkey</text>
</g>
<!-- call -->
<g id="node7" class="node"><title>call</title>
<ellipse fill="none" stroke="black" cx="750" cy="-251" rx="27.0758" ry="18.3848"/>
<text text-anchor="middle" x="750" y="-247.4" font-family="Times Roman,serif" font-size="14.00">call</text>
</g>
<!-- call&#45;&gt;activity -->
<g id="edge6" class="edge"><title>call&#45;&gt;activity</title>
<path fill="none" stroke="black" d="M771.879,-240.082C790.945,-231.123 819.601,-218.976 846,-213 915.192,-197.337 997.017,-194.042 1050.81,-193.881"/>
<polygon fill="black" stroke="black" points="1050.85,-197.381 1060.85,-193.886 1050.85,-190.381 1050.85,-197.381"/>
<text text-anchor="middle" x="921" y="-218.4" font-family="Times Roman,serif" font-size="14.00">call_process_fkey</text>
</g>
<!-- call&#45;&gt;instance -->
<g id="edge8" class="edge"><title>call&#45;&gt;instance</title>
<path fill="none" stroke="black" d="M767.126,-265.445C785.408,-280.012 815.84,-301.888 846,-313 909.11,-336.251 936.474,-301.694 996,-333 1039.41,-355.83 1074.43,-402.37 1093.43,-431.772"/>
<polygon fill="black" stroke="black" points="1090.51,-433.706 1098.8,-440.302 1096.43,-429.975 1090.51,-433.706"/>
<text text-anchor="middle" x="921" y="-338.4" font-family="Times Roman,serif" font-size="14.00">call_instance_fkey</text>
</g>
<!-- dependencies -->
<g id="node10" class="node"><title>dependencies</title>
<ellipse fill="none" stroke="black" cx="750" cy="-690" rx="77.7817" ry="18.3848"/>
<text text-anchor="middle" x="750" y="-686.4" font-family="Times Roman,serif" font-size="14.00">dependencies</text>
</g>
<!-- database_objects -->
<g id="node12" class="node"><title>database_objects</title>
<ellipse fill="none" stroke="black" cx="1109" cy="-690" rx="94.7523" ry="18.3848"/>
<text text-anchor="middle" x="1109" y="-686.4" font-family="Times Roman,serif" font-size="14.00">database_objects</text>
</g>
<!-- dependencies&#45;&gt;database_objects -->
<g id="edge10" class="edge"><title>dependencies&#45;&gt;database_objects</title>
<path fill="none" stroke="black" d="M828.34,-690C879.713,-690 947.498,-690 1003.58,-690"/>
<polygon fill="black" stroke="black" points="1003.91,-693.5 1013.91,-690 1003.91,-686.5 1003.91,-693.5"/>
<text text-anchor="middle" x="921" y="-695.4" font-family="Times Roman,serif" font-size="14.00">_RETURN</text>
</g>
<!-- dependency_graph -->
<g id="node13" class="node"><title>dependency_graph</title>
<ellipse fill="none" stroke="black" cx="103" cy="-690" rx="103.238" ry="18.3848"/>
<text text-anchor="middle" x="103" y="-686.4" font-family="Times Roman,serif" font-size="14.00">dependency_graph</text>
</g>
<!-- dependency_list -->
<g id="node15" class="node"><title>dependency_list</title>
<ellipse fill="none" stroke="black" cx="400" cy="-690" rx="89.8026" ry="18.3848"/>
<text text-anchor="middle" x="400" y="-686.4" font-family="Times Roman,serif" font-size="14.00">dependency_list</text>
</g>
<!-- dependency_graph&#45;&gt;dependency_list -->
<g id="edge12" class="edge"><title>dependency_graph&#45;&gt;dependency_list</title>
<path fill="none" stroke="black" d="M206.043,-690C236.298,-690 269.34,-690 299.438,-690"/>
<polygon fill="black" stroke="black" points="299.524,-693.5 309.524,-690 299.524,-686.5 299.524,-693.5"/>
<text text-anchor="middle" x="258" y="-695.4" font-family="Times Roman,serif" font-size="14.00">_RETURN</text>
</g>
<!-- dependency_list&#45;&gt;dependencies -->
<g id="edge14" class="edge"><title>dependency_list&#45;&gt;dependencies</title>
<path fill="none" stroke="black" d="M490.134,-690C542.827,-690 609.064,-690 661.478,-690"/>
<polygon fill="black" stroke="black" points="661.768,-693.5 671.768,-690 661.768,-686.5 661.768,-693.5"/>
<text text-anchor="middle" x="581" y="-695.4" font-family="Times Roman,serif" font-size="14.00">_RETURN</text>
</g>
<!-- error -->
<g id="node17" class="node"><title>error</title>
<ellipse fill="none" stroke="black" cx="750" cy="-406" rx="36.0624" ry="18.3848"/>
<text text-anchor="middle" x="750" y="-402.4" font-family="Times Roman,serif" font-size="14.00">error</text>
</g>
<!-- error&#45;&gt;activity -->
<g id="edge16" class="edge"><title>error&#45;&gt;activity</title>
<path fill="none" stroke="black" d="M780.333,-396.103C796.732,-389.267 816.022,-378.562 828,-363 848.118,-336.861 821.331,-312.896 846,-291 871.129,-268.696 964.579,-283.901 996,-272 1028.68,-259.623 1061.14,-236.022 1082.82,-218.197"/>
<polygon fill="black" stroke="black" points="1085.17,-220.792 1090.59,-211.683 1080.68,-215.43 1085.17,-220.792"/>
<text text-anchor="middle" x="921" y="-296.4" font-family="Times Roman,serif" font-size="14.00">error_process_fkey</text>
</g>
<!-- error&#45;&gt;instance -->
<g id="edge18" class="edge"><title>error&#45;&gt;instance</title>
<path fill="none" stroke="black" d="M786.248,-404.501C834.584,-403.241 922.582,-403.539 996,-418 1020.15,-422.757 1046.1,-431.656 1067.04,-439.854"/>
<polygon fill="black" stroke="black" points="1066,-443.207 1076.58,-443.678 1068.6,-436.71 1066,-443.207"/>
<text text-anchor="middle" x="921" y="-423.4" font-family="Times Roman,serif" font-size="14.00">error_instance_fkey</text>
</g>
<!-- flow -->
<g id="node20" class="node"><title>flow</title>
<ellipse fill="none" stroke="black" cx="750" cy="-105" rx="33.234" ry="18.3848"/>
<text text-anchor="middle" x="750" y="-101.4" font-family="Times Roman,serif" font-size="14.00">flow</text>
</g>
<!-- flow&#45;&gt;activity -->
<g id="edge22" class="edge"><title>flow&#45;&gt;activity</title>
<path fill="none" stroke="black" d="M781.065,-111.502C799.83,-115.341 824.246,-120.181 846,-124 912.43,-135.661 931.124,-128.561 996,-147 1021.9,-154.36 1049.75,-166.142 1071.32,-176.191"/>
<polygon fill="black" stroke="black" points="1069.92,-179.402 1080.46,-180.519 1072.92,-173.075 1069.92,-179.402"/>
<text text-anchor="middle" x="921" y="-152.4" font-family="Times Roman,serif" font-size="14.00">flow_process_fkey2</text>
</g>
<!-- flow&#45;&gt;activity -->
<g id="edge20" class="edge"><title>flow&#45;&gt;activity</title>
<path fill="none" stroke="black" d="M781.384,-98.7853C829.233,-90.6949 922.607,-80.4006 996,-106 1032.54,-118.745 1066.25,-148.673 1087.17,-170.311"/>
<polygon fill="black" stroke="black" points="1084.87,-172.979 1094.27,-177.86 1089.97,-168.18 1084.87,-172.979"/>
<text text-anchor="middle" x="921" y="-111.4" font-family="Times Roman,serif" font-size="14.00">flow_process_fkey1</text>
</g>
<!-- flow&#45;&gt;process -->
<g id="edge24" class="edge"><title>flow&#45;&gt;process</title>
<path fill="none" stroke="black" d="M780.041,-97.4849C798.854,-93.1707 823.68,-88.1875 846,-86 1044.25,-66.5701 1281.05,-90.4505 1386.55,-103.528"/>
<polygon fill="black" stroke="black" points="1386.29,-107.022 1396.65,-104.796 1387.16,-100.077 1386.29,-107.022"/>
<text text-anchor="middle" x="1109" y="-91.4" font-family="Times Roman,serif" font-size="14.00">flow_process_fkey</text>
</g>
<!-- flows -->
<g id="node24" class="node"><title>flows</title>
<ellipse fill="none" stroke="black" cx="103" cy="-598" rx="36.977" ry="18.3848"/>
<text text-anchor="middle" x="103" y="-594.4" font-family="Times Roman,serif" font-size="14.00">flows</text>
</g>
<!-- flows&#45;&gt;branch -->
<g id="edge26" class="edge"><title>flows&#45;&gt;branch</title>
<path fill="none" stroke="black" d="M140.582,-597.303C249.424,-595.284 565.312,-589.425 694.226,-587.034"/>
<polygon fill="black" stroke="black" points="694.346,-590.533 704.28,-586.848 694.216,-583.534 694.346,-590.533"/>
<text text-anchor="middle" x="400" y="-599.4" font-family="Times Roman,serif" font-size="14.00">_RETURN</text>
</g>
<!-- flows&#45;&gt;instance -->
<g id="edge28" class="edge"><title>flows&#45;&gt;instance</title>
<path fill="none" stroke="black" d="M139.254,-602.633C287.141,-620.867 844.114,-682.872 996,-603 1045.11,-577.177 1079.63,-519.562 1096.73,-485.24"/>
<polygon fill="black" stroke="black" points="1100.08,-486.337 1101.28,-475.809 1093.78,-483.294 1100.08,-486.337"/>
<text text-anchor="middle" x="581" y="-647.4" font-family="Times Roman,serif" font-size="14.00">_RETURN</text>
</g>
<!-- state -->
<g id="node28" class="node"><title>state</title>
<ellipse fill="none" stroke="black" cx="400" cy="-538" rx="36.7696" ry="18.3848"/>
<text text-anchor="middle" x="400" y="-534.4" font-family="Times Roman,serif" font-size="14.00">state</text>
</g>
<!-- flows&#45;&gt;state -->
<g id="edge30" class="edge"><title>flows&#45;&gt;state</title>
<path fill="none" stroke="black" d="M135.143,-588.553C159.406,-581.654 193.598,-572.421 224,-566 267.808,-556.747 318.329,-549.008 353.974,-544.028"/>
<polygon fill="black" stroke="black" points="354.647,-547.468 364.075,-542.635 353.69,-540.534 354.647,-547.468"/>
<text text-anchor="middle" x="258" y="-571.4" font-family="Times Roman,serif" font-size="14.00">_RETURN</text>
</g>
<!-- state&#45;&gt;activity -->
<g id="edge40" class="edge"><title>state&#45;&gt;activity</title>
<path fill="none" stroke="black" d="M408.137,-520.064C435.507,-462.136 530.524,-279.562 672,-206 736.447,-172.49 948.857,-182.944 1051.91,-190.35"/>
<polygon fill="black" stroke="black" points="1051.91,-193.859 1062.14,-191.101 1052.42,-186.878 1051.91,-193.859"/>
<text text-anchor="middle" x="750" y="-211.4" font-family="Times Roman,serif" font-size="14.00">state_process_fkey</text>
</g>
<!-- state&#45;&gt;branch -->
<g id="edge42" class="edge"><title>state&#45;&gt;branch</title>
<path fill="none" stroke="black" d="M436.742,-540.94C486.267,-545.156 577.105,-553.781 654,-566 669.164,-568.41 685.558,-571.604 700.434,-574.731"/>
<polygon fill="black" stroke="black" points="699.945,-578.205 710.456,-576.874 701.409,-571.36 699.945,-578.205"/>
<text text-anchor="middle" x="581" y="-572.4" font-family="Times Roman,serif" font-size="14.00">state_instance_fkey1</text>
</g>
<!-- state&#45;&gt;instance -->
<g id="edge44" class="edge"><title>state&#45;&gt;instance</title>
<path fill="none" stroke="black" d="M436.842,-539.878C531.172,-543.822 788.583,-549.125 996,-503 1021.38,-497.355 1048.49,-486.729 1069.79,-477.22"/>
<polygon fill="black" stroke="black" points="1071.5,-480.288 1079.15,-472.951 1068.6,-473.92 1071.5,-480.288"/>
<text text-anchor="middle" x="750" y="-546.4" font-family="Times Roman,serif" font-size="14.00">state_instance_fkey</text>
</g>
<!-- input -->
<g id="node29" class="node"><title>input</title>
<ellipse fill="none" stroke="black" cx="1109" cy="-18" rx="36.977" ry="18.3848"/>
<text text-anchor="middle" x="1109" y="-14.4" font-family="Times Roman,serif" font-size="14.00">input</text>
</g>
<!-- input&#45;&gt;process -->
<g id="edge32" class="edge"><title>input&#45;&gt;process</title>
<path fill="none" stroke="black" d="M1145.27,-13.0431C1198.72,-7.43282 1300.48,-3.32892 1376,-40 1396.31,-49.8621 1413.46,-68.8863 1425.18,-84.7614"/>
<polygon fill="black" stroke="black" points="1422.5,-87.0264 1431.12,-93.1787 1428.22,-82.9902 1422.5,-87.0264"/>
<text text-anchor="middle" x="1299" y="-45.4" font-family="Times Roman,serif" font-size="14.00">input_process_fkey</text>
</g>
<!-- log -->
<g id="node32" class="node"><title>log</title>
<ellipse fill="none" stroke="black" cx="750" cy="-336" rx="27" ry="18.3848"/>
<text text-anchor="middle" x="750" y="-332.4" font-family="Times Roman,serif" font-size="14.00">log</text>
</g>
<!-- log&#45;&gt;activity -->
<g id="edge36" class="edge"><title>log&#45;&gt;activity</title>
<path fill="none" stroke="black" d="M769.819,-323.59C786.368,-312.705 810.064,-295.862 828,-278 837.447,-268.591 834.562,-260.852 846,-254 903.859,-219.34 930.335,-246.395 996,-231 1019.02,-225.604 1044.12,-217.807 1064.8,-210.848"/>
<polygon fill="black" stroke="black" points="1065.94,-214.158 1074.27,-207.617 1063.68,-207.533 1065.94,-214.158"/>
<text text-anchor="middle" x="921" y="-259.4" font-family="Times Roman,serif" font-size="14.00">log_process_fkey</text>
</g>
<!-- log&#45;&gt;instance -->
<g id="edge38" class="edge"><title>log&#45;&gt;instance</title>
<path fill="none" stroke="black" d="M776.009,-340.9C838.745,-352.729 993.433,-381.953 996,-383 1027.51,-395.856 1059.46,-418.102 1081.31,-435.038"/>
<polygon fill="black" stroke="black" points="1079.15,-437.791 1089.17,-441.238 1083.48,-432.295 1079.15,-437.791"/>
<text text-anchor="middle" x="921" y="-388.4" font-family="Times Roman,serif" font-size="14.00">log_instance_fkey</text>
</g>
<!-- task -->
<g id="node38" class="node"><title>task</title>
<ellipse fill="none" stroke="black" cx="750" cy="-468" rx="32.0265" ry="18.3848"/>
<text text-anchor="middle" x="750" y="-464.4" font-family="Times Roman,serif" font-size="14.00">task</text>
</g>
<!-- task&#45;&gt;activity -->
<g id="edge46" class="edge"><title>task&#45;&gt;activity</title>
<path fill="none" stroke="black" d="M781.554,-463.657C800.279,-461.098 824.488,-457.819 846,-455 879.315,-450.634 968.834,-455.773 996,-436 1067.51,-383.954 1095.25,-275.03 1104.7,-223.361"/>
<polygon fill="black" stroke="black" points="1108.2,-223.696 1106.45,-213.246 1101.3,-222.504 1108.2,-223.696"/>
<text text-anchor="middle" x="921" y="-460.4" font-family="Times Roman,serif" font-size="14.00">task_process_fkey</text>
</g>
<!-- task&#45;&gt;instance -->
<g id="edge48" class="edge"><title>task&#45;&gt;instance</title>
<path fill="none" stroke="black" d="M781.947,-471.749C800.597,-473.749 824.597,-475.999 846,-477 912.594,-480.115 929.564,-482.546 996,-477 1014.99,-475.415 1035.58,-472.357 1053.92,-469.15"/>
<polygon fill="black" stroke="black" points="1054.63,-472.578 1063.86,-467.361 1053.39,-465.689 1054.63,-472.578"/>
<text text-anchor="middle" x="921" y="-486.4" font-family="Times Roman,serif" font-size="14.00">task_instance_fkey</text>
</g>
</g>
</svg>
