<?xml version="1.0" encoding="UTF-8" standalone="no"?>
<!DOCTYPE svg PUBLIC "-//W3C//DTD SVG 1.1//EN"
 "http://www.w3.org/Graphics/SVG/1.1/DTD/svg11.dtd">
<!-- Generated by graphviz version 2.26.3 (20100126.1600)
 -->
<!-- Title: FlowDatabase Pages: 1 -->
<svg width="1442pt" height="661pt"
 viewBox="0.00 0.00 1442.00 660.81" xmlns="http://www.w3.org/2000/svg" xmlns:xlink="http://www.w3.org/1999/xlink">
<g id="graph1" class="graph" transform="scale(1 1) rotate(0) translate(4 656.812)">
<title>FlowDatabase</title>
<polygon fill="white" stroke="white" points="-4,5 -4,-656.812 1439,-656.812 1439,5 -4,5"/>
<!-- flow -->
<g id="node1" class="node"><title>flow</title>
<ellipse fill="none" stroke="black" cx="714" cy="-547.812" rx="33.234" ry="18.3848"/>
<text text-anchor="middle" x="714" y="-544.212" font-family="Times Roman,serif" font-size="14.00">flow</text>
</g>
<!-- activity -->
<g id="node3" class="node"><title>activity</title>
<ellipse fill="none" stroke="black" cx="1053" cy="-440.812" rx="48.0833" ry="18.3848"/>
<text text-anchor="middle" x="1053" y="-437.212" font-family="Times Roman,serif" font-size="14.00">activity</text>
</g>
<!-- flow&#45;&gt;activity -->
<g id="edge2" class="edge"><title>flow&#45;&gt;activity</title>
<path fill="none" stroke="black" d="M738.719,-535.74C757.792,-526.864 785.048,-515.121 810,-507.812 866.309,-491.318 883.501,-500.644 940,-484.812 964.611,-477.916 991.294,-467.664 1012.55,-458.792"/>
<polygon fill="black" stroke="black" points="1014.06,-461.952 1021.9,-454.829 1011.33,-455.506 1014.06,-461.952"/>
<text text-anchor="middle" x="875" y="-513.212" font-family="Times Roman,serif" font-size="14.00">flow_target_fkey</text>
</g>
<!-- flow&#45;&gt;activity -->
<g id="edge12" class="edge"><title>flow&#45;&gt;activity</title>
<path fill="none" stroke="black" d="M747.352,-546.775C801.452,-544.724 905.74,-539.139 940,-525.812 974.64,-512.338 1007.83,-485.07 1029.17,-465.037"/>
<polygon fill="black" stroke="black" points="1031.69,-467.473 1036.48,-458.023 1026.84,-462.423 1031.69,-467.473"/>
<text text-anchor="middle" x="875" y="-549.212" font-family="Times Roman,serif" font-size="14.00">flow_source_fkey</text>
</g>
<!-- process -->
<g id="node27" class="node"><title>process</title>
<ellipse fill="none" stroke="black" cx="1386" cy="-194.812" rx="48.0833" ry="18.3848"/>
<text text-anchor="middle" x="1386" y="-191.212" font-family="Times Roman,serif" font-size="14.00">process</text>
</g>
<!-- flow&#45;&gt;process -->
<g id="edge32" class="edge"><title>flow&#45;&gt;process</title>
<path fill="none" stroke="black" d="M744.492,-555.026C763.262,-559.091 787.882,-563.757 810,-565.812 965.738,-580.287 1023.21,-562.101 1148,-467.812 1246.17,-393.64 1333.32,-273.353 1368.94,-220.786"/>
<polygon fill="black" stroke="black" points="1371.92,-222.618 1374.59,-212.365 1366.11,-218.714 1371.92,-222.618"/>
<text text-anchor="middle" x="1053" y="-570.212" font-family="Times Roman,serif" font-size="14.00">flow_process_fkey</text>
</g>
<!-- state -->
<g id="node4" class="node"><title>state</title>
<ellipse fill="none" stroke="black" cx="400" cy="-179.812" rx="36.7696" ry="18.3848"/>
<text text-anchor="middle" x="400" y="-176.212" font-family="Times Roman,serif" font-size="14.00">state</text>
</g>
<!-- state&#45;&gt;activity -->
<g id="edge4" class="edge"><title>state&#45;&gt;activity</title>
<path fill="none" stroke="black" d="M409.257,-197.563C436.266,-247.235 520.43,-387.666 636,-443.812 757.619,-502.897 923.725,-474.176 1004.68,-454.318"/>
<polygon fill="black" stroke="black" points="1005.74,-457.659 1014.59,-451.826 1004.04,-450.87 1005.74,-457.659"/>
<text text-anchor="middle" x="714" y="-484.212" font-family="Times Roman,serif" font-size="14.00">state_activity_fkey</text>
</g>
<!-- branch -->
<g id="node16" class="node"><title>branch</title>
<ellipse fill="none" stroke="black" cx="714" cy="-125.812" rx="44.7575" ry="18.3848"/>
<text text-anchor="middle" x="714" y="-122.212" font-family="Times Roman,serif" font-size="14.00">branch</text>
</g>
<!-- state&#45;&gt;branch -->
<g id="edge16" class="edge"><title>state&#45;&gt;branch</title>
<path fill="none" stroke="black" d="M435.106,-173.775C490.4,-164.266 598.074,-145.749 662.252,-134.712"/>
<polygon fill="black" stroke="black" points="662.902,-138.151 672.164,-133.007 661.715,-131.253 662.902,-138.151"/>
<text text-anchor="middle" x="563" y="-166.212" font-family="Times Roman,serif" font-size="14.00">state_puid_fkey</text>
</g>
<!-- error -->
<g id="node6" class="node"><title>error</title>
<ellipse fill="none" stroke="black" cx="714" cy="-349.812" rx="36.0624" ry="18.3848"/>
<text text-anchor="middle" x="714" y="-346.212" font-family="Times Roman,serif" font-size="14.00">error</text>
</g>
<!-- error&#45;&gt;activity -->
<g id="edge6" class="edge"><title>error&#45;&gt;activity</title>
<path fill="none" stroke="black" d="M749.222,-345.317C794.687,-340.86 875.604,-337.534 940,-359.812 974.184,-371.638 1007.07,-397.375 1028.46,-416.684"/>
<polygon fill="black" stroke="black" points="1026.36,-419.506 1036.08,-423.727 1031.11,-414.367 1026.36,-419.506"/>
<text text-anchor="middle" x="875" y="-365.212" font-family="Times Roman,serif" font-size="14.00">error_activity_fkey</text>
</g>
<!-- instance -->
<g id="node20" class="node"><title>instance</title>
<ellipse fill="none" stroke="black" cx="1053" cy="-194.812" rx="51.8276" ry="18.3848"/>
<text text-anchor="middle" x="1053" y="-191.212" font-family="Times Roman,serif" font-size="14.00">instance</text>
</g>
<!-- error&#45;&gt;instance -->
<g id="edge26" class="edge"><title>error&#45;&gt;instance</title>
<path fill="none" stroke="black" d="M743.494,-339.401C760.034,-332.13 779.745,-320.829 792,-304.812 810.998,-279.984 786.947,-257.929 810,-236.812 810.863,-236.022 923.969,-216.708 995.547,-204.549"/>
<polygon fill="black" stroke="black" points="996.515,-207.935 1005.79,-202.811 995.343,-201.034 996.515,-207.935"/>
<text text-anchor="middle" x="875" y="-242.212" font-family="Times Roman,serif" font-size="14.00">error_puid_fkey</text>
</g>
<!-- log -->
<g id="node8" class="node"><title>log</title>
<ellipse fill="none" stroke="black" cx="714" cy="-188.812" rx="27" ry="18.3848"/>
<text text-anchor="middle" x="714" y="-185.212" font-family="Times Roman,serif" font-size="14.00">log</text>
</g>
<!-- log&#45;&gt;activity -->
<g id="edge8" class="edge"><title>log&#45;&gt;activity</title>
<path fill="none" stroke="black" d="M730.337,-203.521C748.439,-218.939 779.165,-242.587 810,-254.812 864.342,-276.358 890.561,-243.618 940,-274.812 992.643,-308.029 1026.82,-375.659 1042.68,-413.542"/>
<polygon fill="black" stroke="black" points="1039.49,-414.99 1046.5,-422.939 1045.98,-412.357 1039.49,-414.99"/>
<text text-anchor="middle" x="875" y="-280.212" font-family="Times Roman,serif" font-size="14.00">log_activity_fkey</text>
</g>
<!-- log&#45;&gt;instance -->
<g id="edge20" class="edge"><title>log&#45;&gt;instance</title>
<path fill="none" stroke="black" d="M736.303,-178.462C755.395,-170.205 783.862,-159.304 810,-154.812 866.943,-145.026 885.025,-137.036 940,-154.812 949.39,-157.848 949.119,-163.509 958,-167.812 970.541,-173.889 984.694,-178.828 998.172,-182.74"/>
<polygon fill="black" stroke="black" points="997.262,-186.12 1007.83,-185.409 999.126,-179.373 997.262,-186.12"/>
<text text-anchor="middle" x="875" y="-160.212" font-family="Times Roman,serif" font-size="14.00">log_puid_fkey</text>
</g>
<!-- task -->
<g id="node10" class="node"><title>task</title>
<ellipse fill="none" stroke="black" cx="714" cy="-416.812" rx="32.0265" ry="18.3848"/>
<text text-anchor="middle" x="714" y="-413.212" font-family="Times Roman,serif" font-size="14.00">task</text>
</g>
<!-- task&#45;&gt;activity -->
<g id="edge10" class="edge"><title>task&#45;&gt;activity</title>
<path fill="none" stroke="black" d="M746.505,-419.114C803.92,-423.178 923.975,-431.678 995.605,-436.749"/>
<polygon fill="black" stroke="black" points="995.587,-440.256 1005.81,-437.471 996.081,-433.274 995.587,-440.256"/>
<text text-anchor="middle" x="875" y="-438.212" font-family="Times Roman,serif" font-size="14.00">task_activity_fkey</text>
</g>
<!-- task&#45;&gt;instance -->
<g id="edge24" class="edge"><title>task&#45;&gt;instance</title>
<path fill="none" stroke="black" d="M745.474,-412.08C805.689,-402.929 931.979,-383.232 940,-377.812 996.187,-339.845 1029.52,-263.649 1044.15,-222.572"/>
<polygon fill="black" stroke="black" points="1047.53,-223.524 1047.47,-212.93 1040.91,-221.246 1047.53,-223.524"/>
<text text-anchor="middle" x="875" y="-407.212" font-family="Times Roman,serif" font-size="14.00">task_puid_fkey</text>
</g>
<!-- call -->
<g id="node13" class="node"><title>call</title>
<ellipse fill="none" stroke="black" cx="714" cy="-277.812" rx="27.0758" ry="18.3848"/>
<text text-anchor="middle" x="714" y="-274.212" font-family="Times Roman,serif" font-size="14.00">call</text>
</g>
<!-- call&#45;&gt;activity -->
<g id="edge14" class="edge"><title>call&#45;&gt;activity</title>
<path fill="none" stroke="black" d="M740.66,-282.83C800.205,-294.045 938.9,-320.209 940,-320.812 981.43,-343.539 1016.43,-386.875 1036.05,-414.777"/>
<polygon fill="black" stroke="black" points="1033.33,-416.988 1041.88,-423.248 1039.1,-413.024 1033.33,-416.988"/>
<text text-anchor="middle" x="875" y="-326.212" font-family="Times Roman,serif" font-size="14.00">call_activity_fkey</text>
</g>
<!-- call&#45;&gt;instance -->
<g id="edge22" class="edge"><title>call&#45;&gt;instance</title>
<path fill="none" stroke="black" d="M732.677,-264.348C748.94,-252.307 772.847,-233.827 792,-215.812 800.711,-207.619 799.086,-200.7 810,-195.812 870.336,-168.792 947.857,-174.477 998.917,-182.952"/>
<polygon fill="black" stroke="black" points="998.624,-186.454 1009.08,-184.733 999.833,-179.559 998.624,-186.454"/>
<text text-anchor="middle" x="875" y="-201.212" font-family="Times Roman,serif" font-size="14.00">call_puid_fkey</text>
</g>
<!-- branch&#45;&gt;instance -->
<g id="edge28" class="edge"><title>branch&#45;&gt;instance</title>
<path fill="none" stroke="black" d="M748.852,-114.007C796.466,-100.214 882.487,-83.8744 940,-122.812 957.837,-134.889 942,-153.39 958,-167.812 967.844,-176.686 980.405,-182.663 993.144,-186.683"/>
<polygon fill="black" stroke="black" points="992.306,-190.083 1002.88,-189.391 994.182,-183.339 992.306,-190.083"/>
<text text-anchor="middle" x="875" y="-128.212" font-family="Times Roman,serif" font-size="14.00">branch_puid_fkey</text>
</g>
<!-- flows -->
<g id="node17" class="node"><title>flows</title>
<ellipse fill="none" stroke="black" cx="103" cy="-125.812" rx="36.977" ry="18.3848"/>
<text text-anchor="middle" x="103" y="-122.212" font-family="Times Roman,serif" font-size="14.00">flows</text>
</g>
<!-- flows&#45;&gt;state -->
<g id="edge38" class="edge"><title>flows&#45;&gt;state</title>
<path fill="none" stroke="black" d="M138.236,-132.219C192.304,-142.049 295.69,-160.847 355.07,-171.643"/>
<polygon fill="black" stroke="black" points="354.804,-175.152 365.269,-173.498 356.057,-168.265 354.804,-175.152"/>
<text text-anchor="middle" x="258" y="-165.212" font-family="Times Roman,serif" font-size="14.00">_RETURN</text>
</g>
<!-- flows&#45;&gt;branch -->
<g id="edge18" class="edge"><title>flows&#45;&gt;branch</title>
<path fill="none" stroke="black" d="M140.76,-125.812C244.665,-125.812 535.238,-125.812 658.061,-125.812"/>
<polygon fill="black" stroke="black" points="658.364,-129.312 668.364,-125.812 658.364,-122.312 658.364,-129.312"/>
<text text-anchor="middle" x="400" y="-131.212" font-family="Times Roman,serif" font-size="14.00">_RETURN</text>
</g>
<!-- flows&#45;&gt;instance -->
<g id="edge30" class="edge"><title>flows&#45;&gt;instance</title>
<path fill="none" stroke="black" d="M130.692,-113.453C245.056,-64.4839 686.449,103.814 940,-94.8123 966.306,-115.419 934.79,-143.772 958,-167.812 967.205,-177.347 979.513,-183.586 992.21,-187.649"/>
<polygon fill="black" stroke="black" points="991.379,-191.051 1001.95,-190.351 993.25,-184.305 991.379,-191.051"/>
<text text-anchor="middle" x="563" y="-13.2123" font-family="Times Roman,serif" font-size="14.00">_RETURN</text>
</g>
<!-- instance&#45;&gt;process -->
<g id="edge36" class="edge"><title>instance&#45;&gt;process</title>
<path fill="none" stroke="black" d="M1105.76,-194.812C1166.22,-194.812 1265,-194.812 1327.69,-194.812"/>
<polygon fill="black" stroke="black" points="1327.81,-198.312 1337.81,-194.812 1327.81,-191.312 1327.81,-198.312"/>
<text text-anchor="middle" x="1243" y="-200.212" font-family="Times Roman,serif" font-size="14.00">instance_process_fkey</text>
</g>
<!-- input -->
<g id="node28" class="node"><title>input</title>
<ellipse fill="none" stroke="black" cx="1053" cy="-140.812" rx="36.977" ry="18.3848"/>
<text text-anchor="middle" x="1053" y="-137.212" font-family="Times Roman,serif" font-size="14.00">input</text>
</g>
<!-- input&#45;&gt;process -->
<g id="edge34" class="edge"><title>input&#45;&gt;process</title>
<path fill="none" stroke="black" d="M1090.55,-142.91C1142.6,-146.359 1239.37,-154.737 1320,-172.812 1327.38,-174.466 1335.09,-176.625 1342.53,-178.945"/>
<polygon fill="black" stroke="black" points="1341.52,-182.297 1352.12,-182.057 1343.69,-175.639 1341.52,-182.297"/>
<text text-anchor="middle" x="1243" y="-178.212" font-family="Times Roman,serif" font-size="14.00">input_process_fkey</text>
</g>
<!-- dependencies -->
<g id="node32" class="node"><title>dependencies</title>
<ellipse fill="none" stroke="black" cx="714" cy="-634.812" rx="77.7817" ry="18.3848"/>
<text text-anchor="middle" x="714" y="-631.212" font-family="Times Roman,serif" font-size="14.00">dependencies</text>
</g>
<!-- database_objects -->
<g id="node34" class="node"><title>database_objects</title>
<ellipse fill="none" stroke="black" cx="1053" cy="-634.812" rx="94.7523" ry="18.3848"/>
<text text-anchor="middle" x="1053" y="-631.212" font-family="Times Roman,serif" font-size="14.00">database_objects</text>
</g>
<!-- dependencies&#45;&gt;database_objects -->
<g id="edge40" class="edge"><title>dependencies&#45;&gt;database_objects</title>
<path fill="none" stroke="black" d="M792.199,-634.812C838.39,-634.812 897.475,-634.812 947.722,-634.812"/>
<polygon fill="black" stroke="black" points="947.975,-638.312 957.975,-634.812 947.975,-631.312 947.975,-638.312"/>
<text text-anchor="middle" x="875" y="-640.212" font-family="Times Roman,serif" font-size="14.00">_RETURN</text>
</g>
<!-- dependency_list -->
<g id="node35" class="node"><title>dependency_list</title>
<ellipse fill="none" stroke="black" cx="400" cy="-634.812" rx="89.8026" ry="18.3848"/>
<text text-anchor="middle" x="400" y="-631.212" font-family="Times Roman,serif" font-size="14.00">dependency_list</text>
</g>
<!-- dependency_list&#45;&gt;dependencies -->
<g id="edge42" class="edge"><title>dependency_list&#45;&gt;dependencies</title>
<path fill="none" stroke="black" d="M490.401,-634.812C533.004,-634.812 583.638,-634.812 625.941,-634.812"/>
<polygon fill="black" stroke="black" points="625.945,-638.312 635.945,-634.812 625.945,-631.312 625.945,-638.312"/>
<text text-anchor="middle" x="563" y="-640.212" font-family="Times Roman,serif" font-size="14.00">_RETURN</text>
</g>
<!-- dependency_graph -->
<g id="node37" class="node"><title>dependency_graph</title>
<ellipse fill="none" stroke="black" cx="103" cy="-634.812" rx="103.238" ry="18.3848"/>
<text text-anchor="middle" x="103" y="-631.212" font-family="Times Roman,serif" font-size="14.00">dependency_graph</text>
</g>
<!-- dependency_graph&#45;&gt;dependency_list -->
<g id="edge44" class="edge"><title>dependency_graph&#45;&gt;dependency_list</title>
<path fill="none" stroke="black" d="M206.043,-634.812C236.298,-634.812 269.34,-634.812 299.438,-634.812"/>
<polygon fill="black" stroke="black" points="299.524,-638.312 309.524,-634.812 299.524,-631.312 299.524,-638.312"/>
<text text-anchor="middle" x="258" y="-640.212" font-family="Times Roman,serif" font-size="14.00">_RETURN</text>
</g>
</g>
</svg>
