<?xml version="1.0" encoding="UTF-8" standalone="no"?>
<!DOCTYPE svg PUBLIC "-//W3C//DTD SVG 1.1//EN"
 "http://www.w3.org/Graphics/SVG/1.1/DTD/svg11.dtd">
<!-- Generated by graphviz version 2.26.3 (20100126.1600)
 -->
<!-- Title: graph_flow Pages: 1 -->
<svg width="878pt" height="542pt"
 viewBox="0.00 0.00 878.00 542.00" xmlns="http://www.w3.org/2000/svg" xmlns:xlink="http://www.w3.org/1999/xlink">
<g id="graph1" class="graph" transform="scale(1 1) rotate(0) translate(4 538)">
<title>graph_flow</title>
<polygon fill="white" stroke="white" points="-4,5 -4,-538 875,-538 875,5 -4,5"/>
<g id="graph2" class="cluster"><title>cluster_flow</title>
<polygon fill="none" stroke="black" points="8,-8 8,-428 543,-428 543,-8 8,-8"/>
<text text-anchor="middle" x="275.5" y="-411.4" font-family="Times Roman,serif" font-size="14.00">Flow</text>
</g>
<g id="graph7" class="cluster"><title>cluster_activities</title>
<polygon fill="none" stroke="black" points="551,-134 551,-526 862,-526 862,-134 551,-134"/>
<text text-anchor="middle" x="706.5" y="-509.4" font-family="Times Roman,serif" font-size="14.00">Activities</text>
</g>
<!-- start -->
<g id="node2" class="node"><title>start</title>
<ellipse fill="none" stroke="black" cx="135" cy="-376" rx="18" ry="18"/>
</g>
<!-- input -->
<g id="node4" class="node"><title>input</title>
<polygon fill="none" stroke="black" points="162,-304 108,-304 108,-268 162,-268 162,-304"/>
<text text-anchor="middle" x="135" y="-282.4" font-family="Times Roman,serif" font-size="14.00">input</text>
</g>
<!-- start&#45;&gt;input -->
<g id="edge53" class="edge"><title>start&#45;&gt;input</title>
<path fill="none" stroke="black" d="M135,-357.787C135,-345.344 135,-328.605 135,-314.421"/>
<polygon fill="black" stroke="black" points="138.5,-314.186 135,-304.186 131.5,-314.186 138.5,-314.186"/>
<text text-anchor="middle" x="161" y="-327.4" font-family="Times Roman,serif" font-size="14.00">INSERT</text>
</g>
<!-- branch -->
<g id="node3" class="node"><title>branch</title>
<polygon fill="none" stroke="black" points="324,-304 260,-304 260,-268 324,-268 324,-304"/>
<text text-anchor="middle" x="292" y="-282.4" font-family="Times Roman,serif" font-size="14.00">branch</text>
</g>
<!-- start_flow -->
<g id="node10" class="node"><title>start_flow</title>
<polyline fill="none" stroke="black" points="117,-178 43,-178 "/>
<path fill="none" stroke="black" d="M43,-178C37,-178 31,-172 31,-166"/>
<polyline fill="none" stroke="black" points="31,-166 31,-154 "/>
<path fill="none" stroke="black" d="M31,-154C31,-148 37,-142 43,-142"/>
<polyline fill="none" stroke="black" points="43,-142 117,-142 "/>
<path fill="none" stroke="black" d="M117,-142C123,-142 129,-148 129,-154"/>
<polyline fill="none" stroke="black" points="129,-154 129,-166 "/>
<path fill="none" stroke="black" d="M129,-166C129,-172 123,-178 117,-178"/>
<text text-anchor="middle" x="80" y="-156.4" font-family="Times Roman,serif" font-size="14.00">start_flow()</text>
</g>
<!-- input&#45;&gt;start_flow -->
<g id="edge3" class="edge"><title>input&#45;&gt;start_flow</title>
<path fill="none" stroke="black" d="M127.495,-267.977C118.236,-245.786 102.987,-209.394 97,-196 95.7431,-193.188 94.4086,-190.264 93.0617,-187.353"/>
<polygon fill="black" stroke="black" points="96.2076,-185.817 88.7965,-178.246 89.8685,-188.786 96.2076,-185.817"/>
<text text-anchor="middle" x="176.5" y="-237.4" font-family="Times Roman,serif" font-size="14.00">&lt;trigger&gt;</text>
<text text-anchor="middle" x="176.5" y="-219.4" font-family="Times Roman,serif" font-size="14.00">BEFORE INSERT</text>
<text text-anchor="middle" x="176.5" y="-201.4" font-family="Times Roman,serif" font-size="14.00">flow_input</text>
</g>
<!-- instance -->
<g id="node5" class="node"><title>instance</title>
<polygon fill="none" stroke="black" points="90,-304 16,-304 16,-268 90,-268 90,-304"/>
<text text-anchor="middle" x="53" y="-282.4" font-family="Times Roman,serif" font-size="14.00">instance</text>
</g>
<!-- state -->
<g id="node6" class="node"><title>state</title>
<polygon fill="none" stroke="black" points="460,-52 406,-52 406,-16 460,-16 460,-52"/>
<text text-anchor="middle" x="433" y="-30.4" font-family="Times Roman,serif" font-size="14.00">state</text>
</g>
<!-- call_activity -->
<g id="node7" class="node"><title>call_activity</title>
<polyline fill="none" stroke="black" points="475,-178 391,-178 "/>
<path fill="none" stroke="black" d="M391,-178C385,-178 379,-172 379,-166"/>
<polyline fill="none" stroke="black" points="379,-166 379,-154 "/>
<path fill="none" stroke="black" d="M379,-154C379,-148 385,-142 391,-142"/>
<polyline fill="none" stroke="black" points="391,-142 475,-142 "/>
<path fill="none" stroke="black" d="M475,-142C481,-142 487,-148 487,-154"/>
<polyline fill="none" stroke="black" points="487,-154 487,-166 "/>
<path fill="none" stroke="black" d="M487,-166C487,-172 481,-178 475,-178"/>
<text text-anchor="middle" x="433" y="-156.4" font-family="Times Roman,serif" font-size="14.00">call_activity()</text>
</g>
<!-- state&#45;&gt;call_activity -->
<g id="edge5" class="edge"><title>state&#45;&gt;call_activity</title>
<path fill="none" stroke="black" d="M433,-52.0192C433,-72.8695 433,-107.457 433,-131.86"/>
<polygon fill="black" stroke="black" points="429.5,-131.947 433,-141.947 436.5,-131.947 429.5,-131.947"/>
<text text-anchor="middle" x="484" y="-111.4" font-family="Times Roman,serif" font-size="14.00">&lt;trigger&gt;</text>
<text text-anchor="middle" x="484" y="-93.4" font-family="Times Roman,serif" font-size="14.00">AFTER INSERT</text>
<text text-anchor="middle" x="484" y="-75.4" font-family="Times Roman,serif" font-size="14.00">activity_call</text>
</g>
<!-- close_activity -->
<g id="node8" class="node"><title>close_activity</title>
<polyline fill="none" stroke="black" points="267,-178 173,-178 "/>
<path fill="none" stroke="black" d="M173,-178C167,-178 161,-172 161,-166"/>
<polyline fill="none" stroke="black" points="161,-166 161,-154 "/>
<path fill="none" stroke="black" d="M161,-154C161,-148 167,-142 173,-142"/>
<polyline fill="none" stroke="black" points="173,-142 267,-142 "/>
<path fill="none" stroke="black" d="M267,-142C273,-142 279,-148 279,-154"/>
<polyline fill="none" stroke="black" points="279,-154 279,-166 "/>
<path fill="none" stroke="black" d="M279,-166C279,-172 273,-178 267,-178"/>
<text text-anchor="middle" x="220" y="-156.4" font-family="Times Roman,serif" font-size="14.00">close_activity()</text>
</g>
<!-- state&#45;&gt;close_activity -->
<g id="edge7" class="edge"><title>state&#45;&gt;close_activity</title>
<path fill="none" stroke="black" d="M405.96,-36.0146C360.832,-39.903 272.85,-49.8928 250,-70 232.392,-85.4946 225.091,-111.6 222.078,-131.717"/>
<polygon fill="black" stroke="black" points="218.574,-131.536 220.834,-141.887 225.522,-132.386 218.574,-131.536"/>
<text text-anchor="middle" x="304.5" y="-111.4" font-family="Times Roman,serif" font-size="14.00">&lt;trigger&gt;</text>
<text text-anchor="middle" x="304.5" y="-93.4" font-family="Times Roman,serif" font-size="14.00">AFTER UPDATE</text>
<text text-anchor="middle" x="304.5" y="-75.4" font-family="Times Roman,serif" font-size="14.00">activity_update</text>
</g>
<!-- call_activity&#45;&gt;state -->
<g id="edge9" class="edge"><title>call_activity&#45;&gt;state</title>
<path fill="none" stroke="black" d="M388.321,-141.925C381.39,-137.137 375.161,-131.227 371,-124 359.026,-103.201 359.026,-90.7994 371,-70 376.753,-60.0069 386.462,-52.532 396.509,-47.0613"/>
<polygon fill="black" stroke="black" points="398.261,-50.1017 405.729,-42.586 395.204,-43.8044 398.261,-50.1017"/>
<text text-anchor="middle" x="400" y="-93.4" font-family="Times Roman,serif" font-size="14.00">UPDATE</text>
</g>
<!-- activity_function -->
<g id="node28" class="node"><title>activity_function</title>
<polyline fill="none" stroke="black" points="707,-492 611,-492 "/>
<path fill="none" stroke="black" d="M611,-492C605,-492 599,-486 599,-480"/>
<polyline fill="none" stroke="black" points="599,-480 599,-468 "/>
<path fill="none" stroke="black" d="M599,-468C599,-462 605,-456 611,-456"/>
<polyline fill="none" stroke="black" points="611,-456 707,-456 "/>
<path fill="none" stroke="black" d="M707,-456C713,-456 719,-462 719,-468"/>
<polyline fill="none" stroke="black" points="719,-468 719,-480 "/>
<path fill="none" stroke="black" d="M719,-480C719,-486 713,-492 707,-492"/>
<text text-anchor="middle" x="659" y="-470.4" font-family="Times Roman,serif" font-size="14.00">[activity.func]()</text>
</g>
<!-- call_activity&#45;&gt;activity_function -->
<g id="edge47" class="edge"><title>call_activity&#45;&gt;activity_function</title>
<path fill="none" stroke="black" d="M435.891,-178.103C444.141,-224.172 471.921,-347.388 543.525,-421.527"/>
<polygon fill="black" stroke="black" points="541.49,-424.437 551.058,-428.987 546.415,-419.463 541.49,-424.437"/>
<text text-anchor="middle" x="521.5" y="-327.4" font-family="Times Roman,serif" font-size="14.00">EXECUTE</text>
</g>
<!-- close_activity&#45;&gt;branch -->
<g id="edge11" class="edge"><title>close_activity&#45;&gt;branch</title>
<path fill="none" stroke="black" d="M279.418,-173.126C290.689,-178.376 301.099,-185.721 308,-196 320.354,-214.401 314.467,-239.51 306.565,-258.532"/>
<polygon fill="black" stroke="black" points="303.279,-257.303 302.335,-267.856 309.653,-260.195 303.279,-257.303"/>
<text text-anchor="middle" x="345" y="-237.4" font-family="Times Roman,serif" font-size="14.00">INSERT</text>
<text text-anchor="middle" x="345" y="-219.4" font-family="Times Roman,serif" font-size="14.00">SELECT</text>
<text text-anchor="middle" x="345" y="-201.4" font-family="Times Roman,serif" font-size="14.00">UPDATE</text>
</g>
<!-- log_state -->
<g id="node9" class="node"><title>log_state</title>
<polyline fill="none" stroke="black" points="127,-52 61,-52 "/>
<path fill="none" stroke="black" d="M61,-52C55,-52 49,-46 49,-40"/>
<polyline fill="none" stroke="black" points="49,-40 49,-28 "/>
<path fill="none" stroke="black" d="M49,-28C49,-22 55,-16 61,-16"/>
<polyline fill="none" stroke="black" points="61,-16 127,-16 "/>
<path fill="none" stroke="black" d="M127,-16C133,-16 139,-22 139,-28"/>
<polyline fill="none" stroke="black" points="139,-28 139,-40 "/>
<path fill="none" stroke="black" d="M139,-40C139,-46 133,-52 127,-52"/>
<text text-anchor="middle" x="94" y="-30.4" font-family="Times Roman,serif" font-size="14.00">log_state()</text>
</g>
<!-- close_activity&#45;&gt;log_state -->
<g id="edge13" class="edge"><title>close_activity&#45;&gt;log_state</title>
<path fill="none" stroke="black" d="M160.623,-145.18C148.683,-140.028 137.042,-133.149 128,-124 123.382,-119.327 111.599,-86.4077 103.202,-61.7239"/>
<polygon fill="black" stroke="black" points="106.464,-60.4429 99.9515,-52.0858 99.8308,-62.6799 106.464,-60.4429"/>
<text text-anchor="middle" x="163" y="-93.4" font-family="Times Roman,serif" font-size="14.00">PERFORM</text>
</g>
<!-- log_state&#45;&gt;state -->
<g id="edge15" class="edge"><title>log_state&#45;&gt;state</title>
<path fill="none" stroke="black" d="M139.017,-34C206.609,-34 333.061,-34 395.771,-34"/>
<polygon fill="black" stroke="black" points="395.99,-37.5001 405.99,-34 395.99,-30.5001 395.99,-37.5001"/>
<text text-anchor="middle" x="272" y="-39.4" font-family="Times Roman,serif" font-size="14.00">INSERT</text>
</g>
<!-- start_flow&#45;&gt;branch -->
<g id="edge18" class="edge"><title>start_flow&#45;&gt;branch</title>
<path fill="none" stroke="black" d="M129.146,-172.47C136.789,-174.356 144.601,-176.253 152,-178 187.892,-186.473 205.411,-171.529 233,-196 252.034,-212.883 237.884,-228.833 252,-250 254.517,-253.775 257.519,-257.413 260.731,-260.83"/>
<polygon fill="black" stroke="black" points="258.393,-263.439 267.99,-267.927 263.286,-258.434 258.393,-263.439"/>
<text text-anchor="middle" x="278" y="-219.4" font-family="Times Roman,serif" font-size="14.00">INSERT</text>
</g>
<!-- start_flow&#45;&gt;instance -->
<g id="edge19" class="edge"><title>start_flow&#45;&gt;instance</title>
<path fill="none" stroke="black" d="M57.199,-178.107C52.2461,-183.303 47.6888,-189.377 45,-196 37.0212,-215.653 39.7028,-239.653 44.0094,-257.925"/>
<polygon fill="black" stroke="black" points="40.6493,-258.91 46.5877,-267.684 47.4171,-257.122 40.6493,-258.91"/>
<text text-anchor="middle" x="71" y="-219.4" font-family="Times Roman,serif" font-size="14.00">INSERT</text>
</g>
<!-- start_flow&#45;&gt;log_state -->
<g id="edge21" class="edge"><title>start_flow&#45;&gt;log_state</title>
<path fill="none" stroke="black" d="M49.4286,-141.799C43.598,-136.81 38.2938,-130.853 35,-124 24.6035,-102.369 23.253,-90.9287 35,-70 37.4061,-65.7132 40.5532,-61.8764 44.1424,-58.4555"/>
<polygon fill="black" stroke="black" points="46.5058,-61.0442 52.035,-52.0066 42.0767,-55.6236 46.5058,-61.0442"/>
<text text-anchor="middle" x="70" y="-93.4" font-family="Times Roman,serif" font-size="14.00">PERFORM</text>
</g>
<!-- call -->
<g id="node25" class="node"><title>call</title>
<polygon fill="none" stroke="black" points="768,-304 714,-304 714,-268 768,-268 768,-304"/>
<text text-anchor="middle" x="741" y="-282.4" font-family="Times Roman,serif" font-size="14.00">call</text>
</g>
<!-- finish_call -->
<g id="node29" class="node"><title>finish_call</title>
<polyline fill="none" stroke="black" points="767,-178 697,-178 "/>
<path fill="none" stroke="black" d="M697,-178C691,-178 685,-172 685,-166"/>
<polyline fill="none" stroke="black" points="685,-166 685,-154 "/>
<path fill="none" stroke="black" d="M685,-154C685,-148 691,-142 697,-142"/>
<polyline fill="none" stroke="black" points="697,-142 767,-142 "/>
<path fill="none" stroke="black" d="M767,-142C773,-142 779,-148 779,-154"/>
<polyline fill="none" stroke="black" points="779,-154 779,-166 "/>
<path fill="none" stroke="black" d="M779,-166C779,-172 773,-178 767,-178"/>
<text text-anchor="middle" x="732" y="-156.4" font-family="Times Roman,serif" font-size="14.00">finish_call()</text>
</g>
<!-- call&#45;&gt;finish_call -->
<g id="edge27" class="edge"><title>call&#45;&gt;finish_call</title>
<path fill="none" stroke="black" d="M739.711,-267.947C738.22,-247.082 735.749,-212.493 734.007,-188.101"/>
<polygon fill="black" stroke="black" points="737.491,-187.744 733.287,-178.019 730.509,-188.243 737.491,-187.744"/>
<text text-anchor="middle" x="793.5" y="-237.4" font-family="Times Roman,serif" font-size="14.00">&lt;trigger&gt;</text>
<text text-anchor="middle" x="793.5" y="-219.4" font-family="Times Roman,serif" font-size="14.00">AFTER UPDATE</text>
<text text-anchor="middle" x="793.5" y="-201.4" font-family="Times Roman,serif" font-size="14.00">call_done</text>
</g>
<!-- log -->
<g id="node26" class="node"><title>log</title>
<polygon fill="none" stroke="black" points="613,-304 559,-304 559,-268 613,-268 613,-304"/>
<text text-anchor="middle" x="586" y="-282.4" font-family="Times Roman,serif" font-size="14.00">log</text>
</g>
<!-- task -->
<g id="node27" class="node"><title>task</title>
<polygon fill="none" stroke="black" points="685,-304 631,-304 631,-268 685,-268 685,-304"/>
<text text-anchor="middle" x="658" y="-282.4" font-family="Times Roman,serif" font-size="14.00">task</text>
</g>
<!-- finish_task -->
<g id="node30" class="node"><title>finish_task</title>
<polyline fill="none" stroke="black" points="647,-178 571,-178 "/>
<path fill="none" stroke="black" d="M571,-178C565,-178 559,-172 559,-166"/>
<polyline fill="none" stroke="black" points="559,-166 559,-154 "/>
<path fill="none" stroke="black" d="M559,-154C559,-148 565,-142 571,-142"/>
<polyline fill="none" stroke="black" points="571,-142 647,-142 "/>
<path fill="none" stroke="black" d="M647,-142C653,-142 659,-148 659,-154"/>
<polyline fill="none" stroke="black" points="659,-154 659,-166 "/>
<path fill="none" stroke="black" d="M659,-166C659,-172 653,-178 647,-178"/>
<text text-anchor="middle" x="609" y="-156.4" font-family="Times Roman,serif" font-size="14.00">finish_task()</text>
</g>
<!-- task&#45;&gt;finish_task -->
<g id="edge29" class="edge"><title>task&#45;&gt;finish_task</title>
<path fill="none" stroke="black" d="M635.214,-267.696C630.107,-262.503 625.246,-256.48 622,-250 612.424,-230.885 609.341,-206.809 608.562,-188.369"/>
<polygon fill="black" stroke="black" points="612.058,-188.163 608.338,-178.243 605.06,-188.318 612.058,-188.163"/>
<text text-anchor="middle" x="676.5" y="-237.4" font-family="Times Roman,serif" font-size="14.00">&lt;trigger&gt;</text>
<text text-anchor="middle" x="676.5" y="-219.4" font-family="Times Roman,serif" font-size="14.00">AFTER UPDATE</text>
<text text-anchor="middle" x="676.5" y="-201.4" font-family="Times Roman,serif" font-size="14.00">task_done</text>
</g>
<!-- http_activity -->
<g id="node31" class="node"><title>http_activity</title>
<polyline fill="none" stroke="black" points="749,-394 717,-394 "/>
<path fill="none" stroke="black" d="M717,-394C711,-394 705,-388 705,-382"/>
<polyline fill="none" stroke="black" points="705,-382 705,-370 "/>
<path fill="none" stroke="black" d="M705,-370C705,-364 711,-358 717,-358"/>
<polyline fill="none" stroke="black" points="717,-358 749,-358 "/>
<path fill="none" stroke="black" d="M749,-358C755,-358 761,-364 761,-370"/>
<polyline fill="none" stroke="black" points="761,-370 761,-382 "/>
<path fill="none" stroke="black" d="M761,-382C761,-388 755,-394 749,-394"/>
<text text-anchor="middle" x="733" y="-372.4" font-family="Times Roman,serif" font-size="14.00">http()</text>
</g>
<!-- activity_function&#45;&gt;http_activity -->
<g id="edge39" class="edge"><title>activity_function&#45;&gt;http_activity</title>
<path fill="none" stroke="black" d="M680.372,-447.977C685.561,-441.508 691.042,-434.55 696,-428 704.292,-417.045 713.232,-404.503 720.247,-394.481"/>
<polygon fill="none" stroke="black" points="677.579,-445.864 674.014,-455.841 683.023,-450.264 677.579,-445.864"/>
</g>
<!-- log_activity -->
<g id="node32" class="node"><title>log_activity</title>
<polyline fill="none" stroke="black" points="601,-394 571,-394 "/>
<path fill="none" stroke="black" d="M571,-394C565,-394 559,-388 559,-382"/>
<polyline fill="none" stroke="black" points="559,-382 559,-370 "/>
<path fill="none" stroke="black" d="M559,-370C559,-364 565,-358 571,-358"/>
<polyline fill="none" stroke="black" points="571,-358 601,-358 "/>
<path fill="none" stroke="black" d="M601,-358C607,-358 613,-364 613,-370"/>
<polyline fill="none" stroke="black" points="613,-370 613,-382 "/>
<path fill="none" stroke="black" d="M613,-382C613,-388 607,-394 601,-394"/>
<text text-anchor="middle" x="586" y="-372.4" font-family="Times Roman,serif" font-size="14.00">log()</text>
</g>
<!-- activity_function&#45;&gt;log_activity -->
<g id="edge41" class="edge"><title>activity_function&#45;&gt;log_activity</title>
<path fill="none" stroke="black" d="M637.569,-448.022C632.381,-441.552 626.916,-434.582 622,-428 613.722,-416.915 604.871,-404.145 598.017,-394.034"/>
<polygon fill="none" stroke="black" points="634.918,-450.311 643.93,-455.882 640.36,-445.907 634.918,-450.311"/>
</g>
<!-- mail_activity -->
<g id="node33" class="node"><title>mail_activity</title>
<polyline fill="none" stroke="black" points="823,-394 791,-394 "/>
<path fill="none" stroke="black" d="M791,-394C785,-394 779,-388 779,-382"/>
<polyline fill="none" stroke="black" points="779,-382 779,-370 "/>
<path fill="none" stroke="black" d="M779,-370C779,-364 785,-358 791,-358"/>
<polyline fill="none" stroke="black" points="791,-358 823,-358 "/>
<path fill="none" stroke="black" d="M823,-358C829,-358 835,-364 835,-370"/>
<polyline fill="none" stroke="black" points="835,-370 835,-382 "/>
<path fill="none" stroke="black" d="M835,-382C835,-388 829,-394 823,-394"/>
<text text-anchor="middle" x="807" y="-372.4" font-family="Times Roman,serif" font-size="14.00">mail()</text>
</g>
<!-- activity_function&#45;&gt;mail_activity -->
<g id="edge43" class="edge"><title>activity_function&#45;&gt;mail_activity</title>
<path fill="none" stroke="black" d="M728.614,-452.164C743.145,-445.744 757.753,-437.755 770,-428 781.44,-418.888 790.92,-405.347 797.419,-394.368"/>
<polygon fill="none" stroke="black" points="726.967,-449.06 719.102,-456.159 729.677,-455.514 726.967,-449.06"/>
</g>
<!-- task_activity -->
<g id="node34" class="node"><title>task_activity</title>
<polyline fill="none" stroke="black" points="675,-394 643,-394 "/>
<path fill="none" stroke="black" d="M643,-394C637,-394 631,-388 631,-382"/>
<polyline fill="none" stroke="black" points="631,-382 631,-370 "/>
<path fill="none" stroke="black" d="M631,-370C631,-364 637,-358 643,-358"/>
<polyline fill="none" stroke="black" points="643,-358 675,-358 "/>
<path fill="none" stroke="black" d="M675,-358C681,-358 687,-364 687,-370"/>
<polyline fill="none" stroke="black" points="687,-370 687,-382 "/>
<path fill="none" stroke="black" d="M687,-382C687,-388 681,-394 675,-394"/>
<text text-anchor="middle" x="659" y="-372.4" font-family="Times Roman,serif" font-size="14.00">task()</text>
</g>
<!-- activity_function&#45;&gt;task_activity -->
<g id="edge45" class="edge"><title>activity_function&#45;&gt;task_activity</title>
<path fill="none" stroke="black" d="M659,-445.314C659,-428.728 659,-408.369 659,-394.019"/>
<polygon fill="none" stroke="black" points="655.5,-445.567 659,-455.567 662.5,-445.567 655.5,-445.567"/>
</g>
<!-- finish_call&#45;&gt;state -->
<g id="edge51" class="edge"><title>finish_call&#45;&gt;state</title>
<path fill="none" stroke="black" d="M720.899,-141.795C707.066,-120.824 681.382,-87.0681 650,-70 619.65,-53.4929 523.8,-42.3361 470.2,-37.2126"/>
<polygon fill="black" stroke="black" points="470.358,-33.7122 460.076,-36.2686 469.708,-40.6819 470.358,-33.7122"/>
<text text-anchor="middle" x="737" y="-93.4" font-family="Times Roman,serif" font-size="14.00">UPDATE</text>
</g>
<!-- finish_task&#45;&gt;state -->
<g id="edge49" class="edge"><title>finish_task&#45;&gt;state</title>
<path fill="none" stroke="black" d="M599.266,-141.881C587.515,-121.628 565.932,-89.1691 539,-70 518.496,-55.4063 491.614,-46.3653 470.052,-40.9937"/>
<polygon fill="black" stroke="black" points="470.788,-37.5714 460.254,-38.7101 469.199,-44.3887 470.788,-37.5714"/>
<text text-anchor="middle" x="617" y="-93.4" font-family="Times Roman,serif" font-size="14.00">UPDATE</text>
</g>
<!-- http_activity&#45;&gt;call -->
<g id="edge31" class="edge"><title>http_activity&#45;&gt;call</title>
<path fill="none" stroke="black" d="M728.942,-357.903C727.172,-347.371 725.922,-333.871 728,-322 728.467,-319.331 729.115,-316.598 729.875,-313.89"/>
<polygon fill="black" stroke="black" points="733.214,-314.942 732.991,-304.349 726.56,-312.769 733.214,-314.942"/>
<text text-anchor="middle" x="754" y="-327.4" font-family="Times Roman,serif" font-size="14.00">INSERT</text>
</g>
<!-- log_activity&#45;&gt;log -->
<g id="edge33" class="edge"><title>log_activity&#45;&gt;log</title>
<path fill="none" stroke="black" d="M581.148,-357.815C579.857,-352.151 578.643,-345.855 578,-340 577.127,-332.048 577.127,-329.952 578,-322 578.281,-319.438 578.672,-316.792 579.13,-314.152"/>
<polygon fill="black" stroke="black" points="582.594,-314.68 581.148,-304.185 575.733,-313.291 582.594,-314.68"/>
<text text-anchor="middle" x="604" y="-327.4" font-family="Times Roman,serif" font-size="14.00">INSERT</text>
</g>
<!-- mail_activity&#45;&gt;call -->
<g id="edge35" class="edge"><title>mail_activity&#45;&gt;call</title>
<path fill="none" stroke="black" d="M799.875,-357.8C795.126,-346.859 788.25,-332.976 780,-322 777.248,-318.338 774.093,-314.74 770.797,-311.32"/>
<polygon fill="black" stroke="black" points="773.058,-308.636 763.455,-304.161 768.171,-313.648 773.058,-308.636"/>
<text text-anchor="middle" x="817" y="-327.4" font-family="Times Roman,serif" font-size="14.00">INSERT</text>
</g>
<!-- task_activity&#45;&gt;task -->
<g id="edge37" class="edge"><title>task_activity&#45;&gt;task</title>
<path fill="none" stroke="black" d="M655.36,-357.759C654.391,-352.093 653.481,-345.809 653,-340 652.32,-331.78 652.691,-322.861 653.473,-314.686"/>
<polygon fill="black" stroke="black" points="656.98,-314.83 654.684,-304.487 650.029,-314.004 656.98,-314.83"/>
<text text-anchor="middle" x="679" y="-327.4" font-family="Times Roman,serif" font-size="14.00">INSERT</text>
</g>
</g>
</svg>
