<?xml version="1.0" encoding="UTF-8" standalone="no"?>
<!DOCTYPE svg PUBLIC "-//W3C//DTD SVG 1.1//EN"
 "http://www.w3.org/Graphics/SVG/1.1/DTD/svg11.dtd">
<!-- Generated by graphviz version 2.26.3 (20100126.1600)
 -->
<!-- Title: http.processFlow Pages: 1 -->
<svg width="234pt" height="52pt"
 viewBox="0.00 0.00 234.00 52.00" xmlns="http://www.w3.org/2000/svg" xmlns:xlink="http://www.w3.org/1999/xlink">
<g id="graph1" class="graph" transform="scale(1 1) rotate(0) translate(4 48)">
<title>http.processFlow</title>
<polygon fill="white" stroke="white" points="-4,5 -4,-48 231,-48 231,5 -4,5"/>
<!-- start -->
<g id="node1" class="node"><title>start</title>
<ellipse fill="none" stroke="black" cx="18" cy="-22" rx="18" ry="18"/>
</g>
<!-- http.get -->
<g id="node4" class="node"><title>http.get</title>
<polyline fill="none" stroke="black" points="133,-40 85,-40 "/>
<path fill="none" stroke="black" d="M85,-40C79,-40 73,-34 73,-28"/>
<polyline fill="none" stroke="black" points="73,-28 73,-16 "/>
<path fill="none" stroke="black" d="M73,-16C73,-10 79,-4 85,-4"/>
<polyline fill="none" stroke="black" points="85,-4 133,-4 "/>
<path fill="none" stroke="black" d="M133,-4C139,-4 145,-10 145,-16"/>
<polyline fill="none" stroke="black" points="145,-16 145,-28 "/>
<path fill="none" stroke="black" d="M145,-28C145,-34 139,-40 133,-40"/>
<text text-anchor="middle" x="109" y="-18.4" font-family="Times Roman,serif" font-size="14.00">http.get</text>
</g>
<!-- start&#45;&gt;http.get -->
<g id="edge2" class="edge"><title>start&#45;&gt;http.get</title>
<path fill="none" stroke="black" d="M36.4152,-22C43.8865,-22 52.8896,-22 61.974,-22"/>
<polygon fill="black" stroke="black" points="62.1877,-25.5001 72.1877,-22 62.1876,-18.5001 62.1877,-25.5001"/>
</g>
<!-- end -->
<g id="node2" class="node"><title>end</title>
<ellipse fill="none" stroke="black" cx="204" cy="-22" rx="18" ry="18"/>
<ellipse fill="none" stroke="black" cx="204" cy="-22" rx="22" ry="22"/>
</g>
<!-- http.get&#45;&gt;end -->
<g id="edge4" class="edge"><title>http.get&#45;&gt;end</title>
<path fill="none" stroke="black" d="M145.729,-22C154.32,-22 163.407,-22 171.784,-22"/>
<polygon fill="black" stroke="black" points="171.924,-25.5001 181.924,-22 171.924,-18.5001 171.924,-25.5001"/>
</g>
</g>
</svg>
