<?xml version="1.0" encoding="UTF-8" standalone="no"?>
<!DOCTYPE svg PUBLIC "-//W3C//DTD SVG 1.1//EN"
 "http://www.w3.org/Graphics/SVG/1.1/DTD/svg11.dtd">
<!-- Generated by graphviz version 2.26.3 (20100126.1600)
 -->
<!-- Title: log.processFlow Pages: 1 -->
<svg width="222pt" height="52pt"
 viewBox="0.00 0.00 222.00 52.00" xmlns="http://www.w3.org/2000/svg" xmlns:xlink="http://www.w3.org/1999/xlink">
<g id="graph1" class="graph" transform="scale(1 1) rotate(0) translate(4 48)">
<title>log.processFlow</title>
<polygon fill="white" stroke="white" points="-4,5 -4,-48 219,-48 219,5 -4,5"/>
<!-- start -->
<g id="node1" class="node"><title>start</title>
<ellipse fill="none" stroke="black" cx="18" cy="-22" rx="18" ry="18"/>
</g>
<!-- log.log -->
<g id="node4" class="node"><title>log.log</title>
<polyline fill="none" stroke="black" points="122,-40 84,-40 "/>
<path fill="none" stroke="black" d="M84,-40C78,-40 72,-34 72,-28"/>
<polyline fill="none" stroke="black" points="72,-28 72,-16 "/>
<path fill="none" stroke="black" d="M72,-16C72,-10 78,-4 84,-4"/>
<polyline fill="none" stroke="black" points="84,-4 122,-4 "/>
<path fill="none" stroke="black" d="M122,-4C128,-4 134,-10 134,-16"/>
<polyline fill="none" stroke="black" points="134,-16 134,-28 "/>
<path fill="none" stroke="black" d="M134,-28C134,-34 128,-40 122,-40"/>
<text text-anchor="middle" x="103" y="-18.4" font-family="Times Roman,serif" font-size="14.00">log.log</text>
</g>
<!-- start&#45;&gt;log.log -->
<g id="edge2" class="edge"><title>start&#45;&gt;log.log</title>
<path fill="none" stroke="black" d="M36.0263,-22C43.6034,-22 52.7549,-22 61.8258,-22"/>
<polygon fill="black" stroke="black" points="61.9447,-25.5001 71.9447,-22 61.9447,-18.5001 61.9447,-25.5001"/>
</g>
<!-- end -->
<g id="node2" class="node"><title>end</title>
<ellipse fill="none" stroke="black" cx="192" cy="-22" rx="18" ry="18"/>
<ellipse fill="none" stroke="black" cx="192" cy="-22" rx="22" ry="22"/>
</g>
<!-- log.log&#45;&gt;end -->
<g id="edge4" class="edge"><title>log.log&#45;&gt;end</title>
<path fill="none" stroke="black" d="M134.128,-22C142.446,-22 151.451,-22 159.824,-22"/>
<polygon fill="black" stroke="black" points="159.993,-25.5001 169.993,-22 159.993,-18.5001 159.993,-25.5001"/>
</g>
</g>
</svg>
