<?xml version="1.0" encoding="UTF-8" standalone="no"?>
<!DOCTYPE svg PUBLIC "-//W3C//DTD SVG 1.1//EN"
 "http://www.w3.org/Graphics/SVG/1.1/DTD/svg11.dtd">
<!-- Generated by graphviz version 2.26.3 (20100126.1600)
 -->
<!-- Title: log.exampleFlow Pages: 1 -->
<svg width="214pt" height="52pt"
 viewBox="0.00 0.00 214.00 52.00" xmlns="http://www.w3.org/2000/svg" xmlns:xlink="http://www.w3.org/1999/xlink">
<g id="graph1" class="graph" transform="scale(1 1) rotate(0) translate(4 48)">
<title>log.exampleFlow</title>
<polygon fill="white" stroke="white" points="-4,5 -4,-48 211,-48 211,5 -4,5"/>
<!-- start -->
<g id="node1" class="node"><title>start</title>
<ellipse fill="none" stroke="black" cx="18" cy="-22" rx="18" ry="18"/>
</g>
<!-- call -->
<g id="node4" class="node"><title>call</title>
<polyline fill="none" stroke="black" points="114,-40 84,-40 "/>
<path fill="none" stroke="black" d="M84,-40C78,-40 72,-34 72,-28"/>
<polyline fill="none" stroke="black" points="72,-28 72,-16 "/>
<path fill="none" stroke="black" d="M72,-16C72,-10 78,-4 84,-4"/>
<polyline fill="none" stroke="black" points="84,-4 114,-4 "/>
<path fill="none" stroke="black" d="M114,-4C120,-4 126,-10 126,-16"/>
<polyline fill="none" stroke="black" points="126,-16 126,-28 "/>
<path fill="none" stroke="black" d="M126,-28C126,-34 120,-40 114,-40"/>
<text text-anchor="middle" x="99" y="-18.4" font-family="Times Roman,serif" font-size="14.00">call</text>
</g>
<!-- start&#45;&gt;call -->
<g id="edge2" class="edge"><title>start&#45;&gt;call</title>
<path fill="none" stroke="black" d="M36.3802,-22C43.8951,-22 52.8757,-22 61.6572,-22"/>
<polygon fill="black" stroke="black" points="61.7747,-25.5001 71.7746,-22 61.7746,-18.5001 61.7747,-25.5001"/>
</g>
<!-- end -->
<g id="node2" class="node"><title>end</title>
<ellipse fill="none" stroke="black" cx="184" cy="-22" rx="18" ry="18"/>
<ellipse fill="none" stroke="black" cx="184" cy="-22" rx="22" ry="22"/>
</g>
<!-- call&#45;&gt;end -->
<g id="edge4" class="edge"><title>call&#45;&gt;end</title>
<path fill="none" stroke="black" d="M126.362,-22C134.416,-22 143.303,-22 151.638,-22"/>
<polygon fill="black" stroke="black" points="151.796,-25.5001 161.796,-22 151.796,-18.5001 151.796,-25.5001"/>
</g>
</g>
</svg>
