<?xml version="1.0" encoding="UTF-8" standalone="no"?>
<!DOCTYPE svg PUBLIC "-//W3C//DTD SVG 1.1//EN"
 "http://www.w3.org/Graphics/SVG/1.1/DTD/svg11.dtd">
<!-- Generated by graphviz version 2.26.3 (20100126.1600)
 -->
<!-- Title: mail.processFlow Pages: 1 -->
<svg width="242pt" height="52pt"
 viewBox="0.00 0.00 242.00 52.00" xmlns="http://www.w3.org/2000/svg" xmlns:xlink="http://www.w3.org/1999/xlink">
<g id="graph1" class="graph" transform="scale(1 1) rotate(0) translate(4 48)">
<title>mail.processFlow</title>
<polygon fill="white" stroke="white" points="-4,5 -4,-48 239,-48 239,5 -4,5"/>
<!-- start -->
<g id="node1" class="node"><title>start</title>
<ellipse fill="none" stroke="black" cx="18" cy="-22" rx="18" ry="18"/>
</g>
<!-- mail.send -->
<g id="node4" class="node"><title>mail.send</title>
<polyline fill="none" stroke="black" points="142,-40 84,-40 "/>
<path fill="none" stroke="black" d="M84,-40C78,-40 72,-34 72,-28"/>
<polyline fill="none" stroke="black" points="72,-28 72,-16 "/>
<path fill="none" stroke="black" d="M72,-16C72,-10 78,-4 84,-4"/>
<polyline fill="none" stroke="black" points="84,-4 142,-4 "/>
<path fill="none" stroke="black" d="M142,-4C148,-4 154,-10 154,-16"/>
<polyline fill="none" stroke="black" points="154,-16 154,-28 "/>
<path fill="none" stroke="black" d="M154,-28C154,-34 148,-40 142,-40"/>
<text text-anchor="middle" x="113" y="-18.4" font-family="Times Roman,serif" font-size="14.00">mail.send</text>
</g>
<!-- start&#45;&gt;mail.send -->
<g id="edge2" class="edge"><title>start&#45;&gt;mail.send</title>
<path fill="none" stroke="black" d="M36.317,-22C43.6818,-22 52.5748,-22 61.6565,-22"/>
<polygon fill="black" stroke="black" points="61.9187,-25.5001 71.9187,-22 61.9186,-18.5001 61.9187,-25.5001"/>
</g>
<!-- end -->
<g id="node2" class="node"><title>end</title>
<ellipse fill="none" stroke="black" cx="212" cy="-22" rx="18" ry="18"/>
<ellipse fill="none" stroke="black" cx="212" cy="-22" rx="22" ry="22"/>
</g>
<!-- mail.send&#45;&gt;end -->
<g id="edge4" class="edge"><title>mail.send&#45;&gt;end</title>
<path fill="none" stroke="black" d="M154.125,-22C162.621,-22 171.456,-22 179.589,-22"/>
<polygon fill="black" stroke="black" points="179.789,-25.5001 189.789,-22 179.789,-18.5001 179.789,-25.5001"/>
</g>
</g>
</svg>
