<?xml version="1.0" encoding="UTF-8" standalone="no"?>
<!DOCTYPE svg PUBLIC "-//W3C//DTD SVG 1.1//EN"
 "http://www.w3.org/Graphics/SVG/1.1/DTD/svg11.dtd">
<!-- Generated by graphviz version 2.26.3 (20100126.1600)
 -->
<!-- Title: parallel.processFlow Pages: 1 -->
<svg width="952pt" height="144pt"
 viewBox="0.00 0.00 952.00 144.00" xmlns="http://www.w3.org/2000/svg" xmlns:xlink="http://www.w3.org/1999/xlink">
<g id="graph1" class="graph" transform="scale(1 1) rotate(0) translate(4 140)">
<title>parallel.processFlow</title>
<polygon fill="white" stroke="white" points="-4,5 -4,-140 949,-140 949,5 -4,5"/>
<!-- start -->
<g id="node1" class="node"><title>start</title>
<ellipse fill="none" stroke="black" cx="18" cy="-95" rx="18" ry="18"/>
</g>
<!-- parallel.gateway1 -->
<g id="node4" class="node"><title>parallel.gateway1</title>
<polyline fill="none" stroke="black" points="200,-113 84,-113 "/>
<path fill="none" stroke="black" d="M84,-113C78,-113 72,-107 72,-101"/>
<polyline fill="none" stroke="black" points="72,-101 72,-89 "/>
<path fill="none" stroke="black" d="M72,-89C72,-83 78,-77 84,-77"/>
<polyline fill="none" stroke="black" points="84,-77 200,-77 "/>
<path fill="none" stroke="black" d="M200,-77C206,-77 212,-83 212,-89"/>
<polyline fill="none" stroke="black" points="212,-89 212,-101 "/>
<path fill="none" stroke="black" d="M212,-101C212,-107 206,-113 200,-113"/>
<text text-anchor="middle" x="142" y="-91.4" font-family="Times Roman,serif" font-size="14.00">parallel.gateway1</text>
</g>
<!-- start&#45;&gt;parallel.gateway1 -->
<g id="edge2" class="edge"><title>start&#45;&gt;parallel.gateway1</title>
<path fill="none" stroke="black" d="M36.0307,-95C43.2593,-95 52.1309,-95 61.6354,-95"/>
<polygon fill="black" stroke="black" points="61.7269,-98.5001 71.7268,-95 61.7268,-91.5001 61.7269,-98.5001"/>
</g>
<!-- end -->
<g id="node2" class="node"><title>end</title>
<ellipse fill="none" stroke="black" cx="922" cy="-91" rx="18" ry="18"/>
<ellipse fill="none" stroke="black" cx="922" cy="-91" rx="22" ry="22"/>
</g>
<!-- parallel.log1b1g -->
<g id="node6" class="node"><title>parallel.log1b1g</title>
<polyline fill="none" stroke="black" points="710,-136 608,-136 "/>
<path fill="none" stroke="black" d="M608,-136C602,-136 596,-130 596,-124"/>
<polyline fill="none" stroke="black" points="596,-124 596,-112 "/>
<path fill="none" stroke="black" d="M596,-112C596,-106 602,-100 608,-100"/>
<polyline fill="none" stroke="black" points="608,-100 710,-100 "/>
<path fill="none" stroke="black" d="M710,-100C716,-100 722,-106 722,-112"/>
<polyline fill="none" stroke="black" points="722,-112 722,-124 "/>
<path fill="none" stroke="black" d="M722,-124C722,-130 716,-136 710,-136"/>
<text text-anchor="middle" x="659" y="-114.4" font-family="Times Roman,serif" font-size="14.00">parallel.log1b1g</text>
</g>
<!-- parallel.gateway1&#45;&gt;parallel.log1b1g -->
<g id="edge4" class="edge"><title>parallel.gateway1&#45;&gt;parallel.log1b1g</title>
<path fill="none" stroke="black" d="M212.263,-98.1258C309.991,-102.473 486.117,-110.309 585.528,-114.731"/>
<polygon fill="black" stroke="black" points="585.641,-118.24 595.787,-115.188 585.953,-111.247 585.641,-118.24"/>
</g>
<!-- parallel.gateway2 -->
<g id="node10" class="node"><title>parallel.gateway2</title>
<polyline fill="none" stroke="black" points="376,-90 260,-90 "/>
<path fill="none" stroke="black" d="M260,-90C254,-90 248,-84 248,-78"/>
<polyline fill="none" stroke="black" points="248,-78 248,-66 "/>
<path fill="none" stroke="black" d="M248,-66C248,-60 254,-54 260,-54"/>
<polyline fill="none" stroke="black" points="260,-54 376,-54 "/>
<path fill="none" stroke="black" d="M376,-54C382,-54 388,-60 388,-66"/>
<polyline fill="none" stroke="black" points="388,-66 388,-78 "/>
<path fill="none" stroke="black" d="M388,-78C388,-84 382,-90 376,-90"/>
<text text-anchor="middle" x="318" y="-68.4" font-family="Times Roman,serif" font-size="14.00">parallel.gateway2</text>
</g>
<!-- parallel.gateway1&#45;&gt;parallel.gateway2 -->
<g id="edge8" class="edge"><title>parallel.gateway1&#45;&gt;parallel.gateway2</title>
<path fill="none" stroke="black" d="M212.066,-85.8437C220.54,-84.7362 229.247,-83.5984 237.852,-82.4739"/>
<polygon fill="black" stroke="black" points="238.426,-85.9287 247.888,-81.1624 237.519,-78.9878 238.426,-85.9287"/>
</g>
<!-- parallel.join1 -->
<g id="node8" class="node"><title>parallel.join1</title>
<polyline fill="none" stroke="black" points="851,-109 771,-109 "/>
<path fill="none" stroke="black" d="M771,-109C765,-109 759,-103 759,-97"/>
<polyline fill="none" stroke="black" points="759,-97 759,-85 "/>
<path fill="none" stroke="black" d="M759,-85C759,-79 765,-73 771,-73"/>
<polyline fill="none" stroke="black" points="771,-73 851,-73 "/>
<path fill="none" stroke="black" d="M851,-73C857,-73 863,-79 863,-85"/>
<polyline fill="none" stroke="black" points="863,-85 863,-97 "/>
<path fill="none" stroke="black" d="M863,-97C863,-103 857,-109 851,-109"/>
<text text-anchor="middle" x="811" y="-87.4" font-family="Times Roman,serif" font-size="14.00">parallel.join1</text>
</g>
<!-- parallel.log1b1g&#45;&gt;parallel.join1 -->
<g id="edge6" class="edge"><title>parallel.log1b1g&#45;&gt;parallel.join1</title>
<path fill="none" stroke="black" d="M722.141,-106.784C730.818,-105.243 739.725,-103.661 748.392,-102.121"/>
<polygon fill="black" stroke="black" points="749.194,-105.534 758.427,-100.339 747.969,-98.6415 749.194,-105.534"/>
</g>
<!-- parallel.join1&#45;&gt;end -->
<g id="edge20" class="edge"><title>parallel.join1&#45;&gt;end</title>
<path fill="none" stroke="black" d="M863.574,-91C872.458,-91 881.441,-91 889.611,-91"/>
<polygon fill="black" stroke="black" points="889.806,-94.5001 899.806,-91 889.806,-87.5001 889.806,-94.5001"/>
</g>
<!-- parallel.log2b1g -->
<g id="node12" class="node"><title>parallel.log2b1g</title>
<polyline fill="none" stroke="black" points="543,-90 441,-90 "/>
<path fill="none" stroke="black" d="M441,-90C435,-90 429,-84 429,-78"/>
<polyline fill="none" stroke="black" points="429,-78 429,-66 "/>
<path fill="none" stroke="black" d="M429,-66C429,-60 435,-54 441,-54"/>
<polyline fill="none" stroke="black" points="441,-54 543,-54 "/>
<path fill="none" stroke="black" d="M543,-54C549,-54 555,-60 555,-66"/>
<polyline fill="none" stroke="black" points="555,-66 555,-78 "/>
<path fill="none" stroke="black" d="M555,-78C555,-84 549,-90 543,-90"/>
<text text-anchor="middle" x="492" y="-68.4" font-family="Times Roman,serif" font-size="14.00">parallel.log2b1g</text>
</g>
<!-- parallel.gateway2&#45;&gt;parallel.log2b1g -->
<g id="edge10" class="edge"><title>parallel.gateway2&#45;&gt;parallel.log2b1g</title>
<path fill="none" stroke="black" d="M388.02,-72C398.148,-72 408.596,-72 418.784,-72"/>
<polygon fill="black" stroke="black" points="418.865,-75.5001 428.865,-72 418.865,-68.5001 418.865,-75.5001"/>
</g>
<!-- parallel.task2b2g -->
<g id="node14" class="node"><title>parallel.task2b2g</title>
<polyline fill="none" stroke="black" points="547,-36 437,-36 "/>
<path fill="none" stroke="black" d="M437,-36C431,-36 425,-30 425,-24"/>
<polyline fill="none" stroke="black" points="425,-24 425,-12 "/>
<path fill="none" stroke="black" d="M425,-12C425,-6 431,-1.01809e-14 437,-9.70368e-15"/>
<polyline fill="none" stroke="black" points="437,-9.70368e-15 547,-9.5446e-16 "/>
<path fill="none" stroke="black" d="M547,-9.5446e-16C553,-4.7723e-16 559,-6 559,-12"/>
<polyline fill="none" stroke="black" points="559,-12 559,-24 "/>
<path fill="none" stroke="black" d="M559,-24C559,-30 553,-36 547,-36"/>
<text text-anchor="middle" x="492" y="-14.4" font-family="Times Roman,serif" font-size="14.00">parallel.task2b2g</text>
</g>
<!-- parallel.gateway2&#45;&gt;parallel.task2b2g -->
<g id="edge12" class="edge"><title>parallel.gateway2&#45;&gt;parallel.task2b2g</title>
<path fill="none" stroke="black" d="M376.424,-53.8686C391.713,-49.1237 408.326,-43.9678 424.064,-39.0835"/>
<polygon fill="black" stroke="black" points="425.217,-42.3904 433.731,-36.0836 423.143,-35.7049 425.217,-42.3904"/>
</g>
<!-- parallel.join2 -->
<g id="node16" class="node"><title>parallel.join2</title>
<polyline fill="none" stroke="black" points="699,-82 619,-82 "/>
<path fill="none" stroke="black" d="M619,-82C613,-82 607,-76 607,-70"/>
<polyline fill="none" stroke="black" points="607,-70 607,-58 "/>
<path fill="none" stroke="black" d="M607,-58C607,-52 613,-46 619,-46"/>
<polyline fill="none" stroke="black" points="619,-46 699,-46 "/>
<path fill="none" stroke="black" d="M699,-46C705,-46 711,-52 711,-58"/>
<polyline fill="none" stroke="black" points="711,-58 711,-70 "/>
<path fill="none" stroke="black" d="M711,-70C711,-76 705,-82 699,-82"/>
<text text-anchor="middle" x="659" y="-60.4" font-family="Times Roman,serif" font-size="14.00">parallel.join2</text>
</g>
<!-- parallel.log2b1g&#45;&gt;parallel.join2 -->
<g id="edge14" class="edge"><title>parallel.log2b1g&#45;&gt;parallel.join2</title>
<path fill="none" stroke="black" d="M555.136,-68.9755C568.605,-68.3303 582.828,-67.649 596.282,-67.0045"/>
<polygon fill="black" stroke="black" points="596.574,-70.4946 606.395,-66.52 596.239,-63.5026 596.574,-70.4946"/>
</g>
<!-- parallel.task2b2g&#45;&gt;parallel.join2 -->
<g id="edge16" class="edge"><title>parallel.task2b2g&#45;&gt;parallel.join2</title>
<path fill="none" stroke="black" d="M557.524,-36.0484C570.286,-39.5638 583.636,-43.2412 596.305,-46.7306"/>
<polygon fill="black" stroke="black" points="595.723,-50.2007 606.294,-49.4821 597.582,-43.4521 595.723,-50.2007"/>
</g>
<!-- parallel.join2&#45;&gt;parallel.join1 -->
<g id="edge18" class="edge"><title>parallel.join2&#45;&gt;parallel.join1</title>
<path fill="none" stroke="black" d="M711.736,-73.3675C723.526,-75.4618 736.142,-77.7029 748.291,-79.8609"/>
<polygon fill="black" stroke="black" points="747.9,-83.3461 758.358,-81.649 749.124,-76.454 747.9,-83.3461"/>
</g>
</g>
</svg>
