<?xml version="1.0" encoding="UTF-8" standalone="no"?>
<!DOCTYPE svg PUBLIC "-//W3C//DTD SVG 1.1//EN"
 "http://www.w3.org/Graphics/SVG/1.1/DTD/svg11.dtd">
<!-- Generated by graphviz version 2.26.3 (20100126.1600)
 -->
<!-- Title: parallel.exampleFlow Pages: 1 -->
<svg width="772pt" height="144pt"
 viewBox="0.00 0.00 772.00 144.00" xmlns="http://www.w3.org/2000/svg" xmlns:xlink="http://www.w3.org/1999/xlink">
<g id="graph1" class="graph" transform="scale(1 1) rotate(0) translate(4 140)">
<title>parallel.exampleFlow</title>
<polygon fill="white" stroke="white" points="-4,5 -4,-140 769,-140 769,5 -4,5"/>
<!-- start -->
<g id="node1" class="node"><title>start</title>
<ellipse fill="none" stroke="black" cx="18" cy="-96" rx="18" ry="18"/>
</g>
<!-- gateway1 -->
<g id="node4" class="node"><title>gateway1</title>
<polyline fill="none" stroke="black" points="148,-114 86,-114 "/>
<path fill="none" stroke="black" d="M86,-114C80,-114 74,-108 74,-102"/>
<polyline fill="none" stroke="black" points="74,-102 74,-90 "/>
<path fill="none" stroke="black" d="M74,-90C74,-84 80,-78 86,-78"/>
<polyline fill="none" stroke="black" points="86,-78 148,-78 "/>
<path fill="none" stroke="black" d="M148,-78C154,-78 160,-84 160,-90"/>
<polyline fill="none" stroke="black" points="160,-90 160,-102 "/>
<path fill="none" stroke="black" d="M160,-102C160,-108 154,-114 148,-114"/>
<text text-anchor="middle" x="117" y="-92.4" font-family="Times Roman,serif" font-size="14.00">gateway1</text>
</g>
<!-- start&#45;&gt;gateway1 -->
<g id="edge2" class="edge"><title>start&#45;&gt;gateway1</title>
<path fill="none" stroke="black" d="M36.1581,-96C44.0298,-96 53.6978,-96 63.5756,-96"/>
<polygon fill="black" stroke="black" points="63.8787,-99.5001 73.8786,-96 63.8786,-92.5001 63.8787,-99.5001"/>
</g>
<!-- end -->
<g id="node2" class="node"><title>end</title>
<ellipse fill="none" stroke="black" cx="742" cy="-100" rx="18" ry="18"/>
<ellipse fill="none" stroke="black" cx="742" cy="-100" rx="22" ry="22"/>
</g>
<!-- log1b1g -->
<g id="node6" class="node"><title>log1b1g</title>
<polyline fill="none" stroke="black" points="387,-136 341,-136 "/>
<path fill="none" stroke="black" d="M341,-136C335,-136 329,-130 329,-124"/>
<polyline fill="none" stroke="black" points="329,-124 329,-112 "/>
<path fill="none" stroke="black" d="M329,-112C329,-106 335,-100 341,-100"/>
<polyline fill="none" stroke="black" points="341,-100 387,-100 "/>
<path fill="none" stroke="black" d="M387,-100C393,-100 399,-106 399,-112"/>
<polyline fill="none" stroke="black" points="399,-112 399,-124 "/>
<path fill="none" stroke="black" d="M399,-124C399,-130 393,-136 387,-136"/>
<text text-anchor="middle" x="364" y="-114.4" font-family="Times Roman,serif" font-size="14.00">log1b1g</text>
</g>
<!-- gateway1&#45;&gt;log1b1g -->
<g id="edge4" class="edge"><title>gateway1&#45;&gt;log1b1g</title>
<path fill="none" stroke="black" d="M160.024,-99.8321C204.263,-103.772 272.904,-109.886 318.149,-113.916"/>
<polygon fill="black" stroke="black" points="318.003,-117.417 328.274,-114.818 318.624,-110.444 318.003,-117.417"/>
<text text-anchor="middle" x="192" y="-108.4" font-family="Times Roman,serif" font-size="14.00">one</text>
</g>
<!-- gateway2 -->
<g id="node10" class="node"><title>gateway2</title>
<polyline fill="none" stroke="black" points="298,-90 236,-90 "/>
<path fill="none" stroke="black" d="M236,-90C230,-90 224,-84 224,-78"/>
<polyline fill="none" stroke="black" points="224,-78 224,-66 "/>
<path fill="none" stroke="black" d="M224,-66C224,-60 230,-54 236,-54"/>
<polyline fill="none" stroke="black" points="236,-54 298,-54 "/>
<path fill="none" stroke="black" d="M298,-54C304,-54 310,-60 310,-66"/>
<polyline fill="none" stroke="black" points="310,-66 310,-78 "/>
<path fill="none" stroke="black" d="M310,-78C310,-84 304,-90 298,-90"/>
<text text-anchor="middle" x="267" y="-68.4" font-family="Times Roman,serif" font-size="14.00">gateway2</text>
</g>
<!-- gateway1&#45;&gt;gateway2 -->
<g id="edge8" class="edge"><title>gateway1&#45;&gt;gateway2</title>
<path fill="none" stroke="black" d="M160.028,-83.3032C170.122,-80.3247 178,-78 178,-78 178,-78 194.771,-76.8694 213.753,-75.5897"/>
<polygon fill="black" stroke="black" points="214.062,-79.0769 223.804,-74.9121 213.591,-72.0928 214.062,-79.0769"/>
<text text-anchor="middle" x="192" y="-83.4" font-family="Times Roman,serif" font-size="14.00">two</text>
</g>
<!-- join1 -->
<g id="node8" class="node"><title>join1</title>
<polyline fill="none" stroke="black" points="670,-118 640,-118 "/>
<path fill="none" stroke="black" d="M640,-118C634,-118 628,-112 628,-106"/>
<polyline fill="none" stroke="black" points="628,-106 628,-94 "/>
<path fill="none" stroke="black" d="M628,-94C628,-88 634,-82 640,-82"/>
<polyline fill="none" stroke="black" points="640,-82 670,-82 "/>
<path fill="none" stroke="black" d="M670,-82C676,-82 682,-88 682,-94"/>
<polyline fill="none" stroke="black" points="682,-94 682,-106 "/>
<path fill="none" stroke="black" d="M682,-106C682,-112 676,-118 670,-118"/>
<text text-anchor="middle" x="655" y="-96.4" font-family="Times Roman,serif" font-size="14.00">join1</text>
</g>
<!-- log1b1g&#45;&gt;join1 -->
<g id="edge6" class="edge"><title>log1b1g&#45;&gt;join1</title>
<path fill="none" stroke="black" d="M399.682,-115.793C455.003,-112.371 560.961,-105.817 617.417,-102.325"/>
<polygon fill="black" stroke="black" points="617.924,-105.8 627.689,-101.689 617.492,-98.8135 617.924,-105.8"/>
</g>
<!-- join1&#45;&gt;end -->
<g id="edge20" class="edge"><title>join1&#45;&gt;end</title>
<path fill="none" stroke="black" d="M682.05,-100C690.798,-100 700.587,-100 709.677,-100"/>
<polygon fill="black" stroke="black" points="709.923,-103.5 719.923,-100 709.923,-96.5001 709.923,-103.5"/>
</g>
<!-- log2b1g -->
<g id="node12" class="node"><title>log2b1g</title>
<polyline fill="none" stroke="black" points="481,-90 435,-90 "/>
<path fill="none" stroke="black" d="M435,-90C429,-90 423,-84 423,-78"/>
<polyline fill="none" stroke="black" points="423,-78 423,-66 "/>
<path fill="none" stroke="black" d="M423,-66C423,-60 429,-54 435,-54"/>
<polyline fill="none" stroke="black" points="435,-54 481,-54 "/>
<path fill="none" stroke="black" d="M481,-54C487,-54 493,-60 493,-66"/>
<polyline fill="none" stroke="black" points="493,-66 493,-78 "/>
<path fill="none" stroke="black" d="M493,-78C493,-84 487,-90 481,-90"/>
<text text-anchor="middle" x="458" y="-68.4" font-family="Times Roman,serif" font-size="14.00">log2b1g</text>
</g>
<!-- gateway2&#45;&gt;log2b1g -->
<g id="edge10" class="edge"><title>gateway2&#45;&gt;log2b1g</title>
<path fill="none" stroke="black" d="M310.341,-72C340.699,-72 381.201,-72 412.107,-72"/>
<polygon fill="black" stroke="black" points="412.192,-75.5001 422.192,-72 412.192,-68.5001 412.192,-75.5001"/>
<text text-anchor="middle" x="364" y="-77.4" font-family="Times Roman,serif" font-size="14.00">three</text>
</g>
<!-- task2b2g -->
<g id="node14" class="node"><title>task2b2g</title>
<polyline fill="none" stroke="black" points="486,-36 430,-36 "/>
<path fill="none" stroke="black" d="M430,-36C424,-36 418,-30 418,-24"/>
<polyline fill="none" stroke="black" points="418,-24 418,-12 "/>
<path fill="none" stroke="black" d="M418,-12C418,-6 424,-9.85878e-15 430,-9.05942e-15"/>
<polyline fill="none" stroke="black" points="430,-9.05942e-15 486,-1.59872e-15 "/>
<path fill="none" stroke="black" d="M486,-1.59872e-15C492,-7.99361e-16 498,-6 498,-12"/>
<polyline fill="none" stroke="black" points="498,-12 498,-24 "/>
<path fill="none" stroke="black" d="M498,-24C498,-30 492,-36 486,-36"/>
<text text-anchor="middle" x="458" y="-14.4" font-family="Times Roman,serif" font-size="14.00">task2b2g</text>
</g>
<!-- gateway2&#45;&gt;task2b2g -->
<g id="edge12" class="edge"><title>gateway2&#45;&gt;task2b2g</title>
<path fill="none" stroke="black" d="M310.028,-56.4817C320.122,-52.8413 328,-50 328,-50 328,-50 371.228,-39.3594 407.829,-30.3499"/>
<polygon fill="black" stroke="black" points="409.061,-33.651 417.935,-27.8622 407.388,-26.8539 409.061,-33.651"/>
<text text-anchor="middle" x="364" y="-55.4" font-family="Times Roman,serif" font-size="14.00">four</text>
</g>
<!-- join2 -->
<g id="node16" class="node"><title>join2</title>
<polyline fill="none" stroke="black" points="578,-90 548,-90 "/>
<path fill="none" stroke="black" d="M548,-90C542,-90 536,-84 536,-78"/>
<polyline fill="none" stroke="black" points="536,-78 536,-66 "/>
<path fill="none" stroke="black" d="M536,-66C536,-60 542,-54 548,-54"/>
<polyline fill="none" stroke="black" points="548,-54 578,-54 "/>
<path fill="none" stroke="black" d="M578,-54C584,-54 590,-60 590,-66"/>
<polyline fill="none" stroke="black" points="590,-66 590,-78 "/>
<path fill="none" stroke="black" d="M590,-78C590,-84 584,-90 578,-90"/>
<text text-anchor="middle" x="563" y="-68.4" font-family="Times Roman,serif" font-size="14.00">join2</text>
</g>
<!-- log2b1g&#45;&gt;join2 -->
<g id="edge14" class="edge"><title>log2b1g&#45;&gt;join2</title>
<path fill="none" stroke="black" d="M493.548,-72C503.9,-72 515.237,-72 525.695,-72"/>
<polygon fill="black" stroke="black" points="525.789,-75.5001 535.789,-72 525.789,-68.5001 525.789,-75.5001"/>
</g>
<!-- task2b2g&#45;&gt;join2 -->
<g id="edge16" class="edge"><title>task2b2g&#45;&gt;join2</title>
<path fill="none" stroke="black" d="M493.256,-36.1314C504.038,-41.6768 515.912,-47.7835 526.759,-53.362"/>
<polygon fill="black" stroke="black" points="525.48,-56.6398 535.974,-58.1008 528.682,-50.4147 525.48,-56.6398"/>
</g>
<!-- join2&#45;&gt;join1 -->
<g id="edge18" class="edge"><title>join2&#45;&gt;join1</title>
<path fill="none" stroke="black" d="M590.105,-80.2495C598.824,-82.9031 608.64,-85.8904 617.947,-88.7229"/>
<polygon fill="black" stroke="black" points="617.185,-92.1494 627.77,-91.7127 619.223,-85.4527 617.185,-92.1494"/>
</g>
</g>
</svg>
