<?xml version="1.0" encoding="UTF-8" standalone="no"?>
<!DOCTYPE svg PUBLIC "-//W3C//DTD SVG 1.1//EN"
 "http://www.w3.org/Graphics/SVG/1.1/DTD/svg11.dtd">
<!-- Generated by graphviz version 2.26.3 (20100126.1600)
 -->
<!-- Title: task.exampleFlow Pages: 1 -->
<svg width="228pt" height="52pt"
 viewBox="0.00 0.00 228.00 52.00" xmlns="http://www.w3.org/2000/svg" xmlns:xlink="http://www.w3.org/1999/xlink">
<g id="graph1" class="graph" transform="scale(1 1) rotate(0) translate(4 48)">
<title>task.exampleFlow</title>
<polygon fill="white" stroke="white" points="-4,5 -4,-48 225,-48 225,5 -4,5"/>
<!-- start -->
<g id="node1" class="node"><title>start</title>
<ellipse fill="none" stroke="black" cx="18" cy="-22" rx="18" ry="18"/>
</g>
<!-- confirm -->
<g id="node4" class="node"><title>confirm</title>
<polyline fill="none" stroke="black" points="128,-40 84,-40 "/>
<path fill="none" stroke="black" d="M84,-40C78,-40 72,-34 72,-28"/>
<polyline fill="none" stroke="black" points="72,-28 72,-16 "/>
<path fill="none" stroke="black" d="M72,-16C72,-10 78,-4 84,-4"/>
<polyline fill="none" stroke="black" points="84,-4 128,-4 "/>
<path fill="none" stroke="black" d="M128,-4C134,-4 140,-10 140,-16"/>
<polyline fill="none" stroke="black" points="140,-16 140,-28 "/>
<path fill="none" stroke="black" d="M140,-28C140,-34 134,-40 128,-40"/>
<text text-anchor="middle" x="106" y="-18.4" font-family="Times Roman,serif" font-size="14.00">confirm</text>
</g>
<!-- start&#45;&gt;confirm -->
<g id="edge2" class="edge"><title>start&#45;&gt;confirm</title>
<path fill="none" stroke="black" d="M36.2337,-22C43.6955,-22 52.6838,-22 61.6894,-22"/>
<polygon fill="black" stroke="black" points="61.784,-25.5001 71.784,-22 61.784,-18.5001 61.784,-25.5001"/>
</g>
<!-- end -->
<g id="node2" class="node"><title>end</title>
<ellipse fill="none" stroke="black" cx="198" cy="-22" rx="18" ry="18"/>
<ellipse fill="none" stroke="black" cx="198" cy="-22" rx="22" ry="22"/>
</g>
<!-- confirm&#45;&gt;end -->
<g id="edge4" class="edge"><title>confirm&#45;&gt;end</title>
<path fill="none" stroke="black" d="M140.257,-22C148.663,-22 157.629,-22 165.927,-22"/>
<polygon fill="black" stroke="black" points="165.989,-25.5001 175.989,-22 165.989,-18.5001 165.989,-25.5001"/>
</g>
</g>
</svg>
