<?xml version="1.0" encoding="UTF-8" standalone="no"?>
<!DOCTYPE svg PUBLIC "-//W3C//DTD SVG 1.1//EN"
 "http://www.w3.org/Graphics/SVG/1.1/DTD/svg11.dtd">
<!-- Generated by graphviz version 2.26.3 (20100126.1600)
 -->
<!-- Title: task.processFlow Pages: 1 -->
<svg width="254pt" height="52pt"
 viewBox="0.00 0.00 254.00 52.00" xmlns="http://www.w3.org/2000/svg" xmlns:xlink="http://www.w3.org/1999/xlink">
<g id="graph1" class="graph" transform="scale(1 1) rotate(0) translate(4 48)">
<title>task.processFlow</title>
<polygon fill="white" stroke="white" points="-4,5 -4,-48 251,-48 251,5 -4,5"/>
<!-- start -->
<g id="node1" class="node"><title>start</title>
<ellipse fill="none" stroke="black" cx="18" cy="-22" rx="18" ry="18"/>
</g>
<!-- task.create -->
<g id="node4" class="node"><title>task.create</title>
<polyline fill="none" stroke="black" points="154,-40 84,-40 "/>
<path fill="none" stroke="black" d="M84,-40C78,-40 72,-34 72,-28"/>
<polyline fill="none" stroke="black" points="72,-28 72,-16 "/>
<path fill="none" stroke="black" d="M72,-16C72,-10 78,-4 84,-4"/>
<polyline fill="none" stroke="black" points="84,-4 154,-4 "/>
<path fill="none" stroke="black" d="M154,-4C160,-4 166,-10 166,-16"/>
<polyline fill="none" stroke="black" points="166,-16 166,-28 "/>
<path fill="none" stroke="black" d="M166,-28C166,-34 160,-40 154,-40"/>
<text text-anchor="middle" x="119" y="-18.4" font-family="Times Roman,serif" font-size="14.00">task.create</text>
</g>
<!-- start&#45;&gt;task.create -->
<g id="edge2" class="edge"><title>start&#45;&gt;task.create</title>
<path fill="none" stroke="black" d="M36.0568,-22C43.3905,-22 52.3072,-22 61.5404,-22"/>
<polygon fill="black" stroke="black" points="61.6237,-25.5001 71.6237,-22 61.6236,-18.5001 61.6237,-25.5001"/>
</g>
<!-- end -->
<g id="node2" class="node"><title>end</title>
<ellipse fill="none" stroke="black" cx="224" cy="-22" rx="18" ry="18"/>
<ellipse fill="none" stroke="black" cx="224" cy="-22" rx="22" ry="22"/>
</g>
<!-- task.create&#45;&gt;end -->
<g id="edge4" class="edge"><title>task.create&#45;&gt;end</title>
<path fill="none" stroke="black" d="M166.278,-22C174.908,-22 183.727,-22 191.791,-22"/>
<polygon fill="black" stroke="black" points="191.879,-25.5001 201.879,-22 191.878,-18.5001 191.879,-25.5001"/>
</g>
</g>
</svg>
